<svg width="173" height="55" viewBox="0 0 173 55" fill="none" xmlns="http://www.w3.org/2000/svg">
<path d="M22.9799 5.37744H21.4949V10.2524H22.9799V5.37744Z" fill="white"/>
<path d="M22.7299 5.62744V10.0024H21.7449V5.62744H22.7299ZM23.2299 5.12744H21.2449V10.5024H23.2299V5.12744Z" fill="white"/>
<path d="M21.6899 5.07248L26.1349 1.16748L27.2299 1.74248L22.7899 5.64747L21.6899 5.07248Z" fill="white"/>
<path d="M26.17 1.46743L26.79 1.79242L22.75 5.34242L22.13 5.01742L26.17 1.46743ZM26.095 0.867432L21.25 5.12742L22.825 5.94742L27.67 1.68743L26.095 0.867432Z" fill="white"/>
<path d="M22.975 10.7424H21.49V15.6174H22.975V10.7424Z" fill="white"/>
<path d="M22.725 10.9924V15.3674H21.74V10.9924H22.725ZM23.225 10.4924H21.24V15.8674H23.225V10.4924Z" fill="white"/>
<path d="M17.24 19.2575L21.68 15.3525L22.775 15.9225L18.335 19.8325L17.24 19.2575Z" fill="white"/>
<path d="M21.715 15.6525L22.335 15.9775L18.295 19.5275L17.675 19.2025L21.715 15.6525ZM21.645 15.0525L16.8 19.3125L18.375 20.1325L23.22 15.8725L21.645 15.0525Z" fill="white"/>
<path d="M28.9949 7.82739L31.3599 6.07739L32.1199 7.00739L29.7599 8.75239L28.9949 7.82739Z" fill="white"/>
<path d="M31.315 6.42231L31.76 6.96231L29.8 8.4123L29.355 7.8723L31.315 6.42231ZM31.4 5.7373L28.635 7.78231L29.715 9.0923L32.48 7.04731L31.4 5.7373Z" fill="white"/>
<path d="M25.175 10.6524L30.305 6.85742L31.07 7.78242L25.94 11.5824L25.175 10.6524Z" fill="white"/>
<path d="M30.2651 7.19733L30.7101 7.73732L25.9851 11.2373L25.5401 10.6973L30.2651 7.19733ZM30.3501 6.51733L24.8201 10.6123L25.9001 11.9223L31.4301 7.82733L30.3501 6.51733Z" fill="white"/>
<path d="M33.525 7.47241C32.78 7.47241 32.095 7.15741 31.64 6.60241C31.255 6.13242 31.08 5.55242 31.155 4.96742C31.23 4.36742 31.5449 3.83242 32.0499 3.46242C32.4749 3.14742 32.9799 2.98242 33.5199 2.98242C34.2649 2.98242 34.95 3.29742 35.405 3.85242C35.79 4.32242 35.965 4.90241 35.89 5.48741C35.815 6.08741 35.4999 6.62241 34.9949 6.99241C34.5699 7.30741 34.06 7.47241 33.525 7.47241Z" fill="white"/>
<path d="M33.515 3.23242C34.185 3.23242 34.8 3.51742 35.21 4.01242C35.55 4.42742 35.705 4.94242 35.64 5.46242C35.575 5.99242 35.295 6.46741 34.845 6.79741C34.465 7.07741 34.01 7.22741 33.525 7.22741C32.855 7.22741 32.24 6.94241 31.83 6.44742C31.49 6.03242 31.335 5.51741 31.4 4.99742C31.465 4.46742 31.745 3.99242 32.195 3.66242C32.575 3.37742 33.03 3.23242 33.515 3.23242ZM33.515 2.73242C32.95 2.73242 32.38 2.90242 31.895 3.26242C30.75 4.11242 30.545 5.67742 31.445 6.76741C31.965 7.39741 32.74 7.72741 33.525 7.72741C34.09 7.72741 34.66 7.55741 35.145 7.19741C36.29 6.34742 36.495 4.78242 35.595 3.69242C35.07 3.06242 34.295 2.73242 33.515 2.73242Z" fill="white"/>
<path d="M28.21 11.0422L31.075 8.92725L31.835 9.85225L28.975 11.9672L28.21 11.0422Z" fill="white"/>
<path d="M31.0301 9.26728L31.4751 9.80727L29.0151 11.6273L28.5701 11.0873L31.0301 9.26728ZM31.1151 8.58228L27.8501 10.9973L28.9301 12.3073L32.1951 9.89228L31.1151 8.58228Z" fill="white"/>
<path d="M25.155 10.6874L26.135 9.9624L28.24 12.5124L27.26 13.2374L25.155 10.6874Z" fill="white"/>
<path d="M26.0949 10.3024L27.8799 12.4674L27.2999 12.8974L25.5149 10.7324L26.0949 10.3024ZM26.1799 9.61743L24.7949 10.6424L27.2199 13.5824L28.6049 12.5574L26.1799 9.61743Z" fill="white"/>
<path d="M41.0181 10.0666L37.2068 13.1062L38.1327 14.2672L41.944 11.2276L41.0181 10.0666Z" fill="white"/>
<path d="M41.595 11.1924L38.175 13.9224L37.56 13.1524L40.98 10.4224L41.595 11.1924ZM42.3 11.2724L41.06 9.72241L36.855 13.0774L38.095 14.6274L42.3 11.2724Z" fill="white"/>
<path d="M41.3799 10.0325L47.2049 11.0725L47.4399 12.2875L41.6199 11.2475L41.3799 10.0325Z" fill="white"/>
<path d="M46.9948 11.2873L47.1298 11.9773L41.8348 11.0323L41.6998 10.3423L46.9948 11.2873ZM47.4198 10.8573L41.0698 9.72729L41.4098 11.4673L47.7598 12.5973L47.4198 10.8573Z" fill="white"/>
<path d="M36.8193 13.4072L33.0081 16.4468L33.934 17.6077L37.7452 14.5682L36.8193 13.4072Z" fill="white"/>
<path d="M37.3998 14.5323L33.9798 17.2622L33.3648 16.4922L36.7848 13.7623L37.3998 14.5323ZM38.0998 14.6122L36.8598 13.0623L32.6548 16.4172L33.8948 17.9672L38.0998 14.6122Z" fill="white"/>
<path d="M27.5149 15.3975L33.3399 16.4325L33.5749 17.6475L27.7549 16.6125L27.5149 15.3975Z" fill="white"/>
<path d="M33.1298 16.6474L33.2648 17.3374L27.9698 16.3924L27.8348 15.7024L33.1298 16.6474ZM33.5548 16.2174L27.2048 15.0874L27.5448 16.8274L33.8948 17.9574L33.5548 16.2174Z" fill="white"/>
<path d="M43.7799 17.4624L46.6249 18.2174L46.3749 19.3924L43.5349 18.6374L43.7799 17.4624Z" fill="white"/>
<path d="M46.33 18.3973L46.185 19.0823L43.825 18.4523L43.97 17.7673L46.33 18.3973ZM46.915 18.0373L43.59 17.1523L43.24 18.8173L46.565 19.7023L46.915 18.0373Z" fill="white"/>
<path d="M39.1948 16.2373L45.3598 17.8823L45.1098 19.0573L38.9448 17.4123L39.1948 16.2373Z" fill="white"/>
<path d="M45.0648 18.0624L44.9198 18.7474L39.2348 17.2324L39.3798 16.5474L45.0648 18.0624ZM45.6548 17.7024L39.0048 15.9324L38.6548 17.5974L45.3048 19.3674L45.6548 17.7024Z" fill="white"/>
<path d="M46.8848 20.7825C46.4198 20.2025 46.2398 19.4675 46.3898 18.7675C46.5148 18.1725 46.8598 17.6775 47.3648 17.3675C47.8798 17.0525 48.4948 16.9675 49.0998 17.1275C49.6098 17.2625 50.0548 17.5575 50.3898 17.9775C50.8548 18.5575 51.0348 19.2925 50.8848 19.9925C50.7598 20.5875 50.4148 21.0825 49.9098 21.3925C49.3948 21.7075 48.7798 21.7925 48.1748 21.6325C47.6648 21.4925 47.2198 21.2025 46.8848 20.7825Z" fill="white"/>
<path d="M50.1949 18.1274C50.6099 18.6524 50.7749 19.3074 50.6399 19.9374C50.5299 20.4624 50.2249 20.9024 49.7749 21.1774C49.3199 21.4574 48.7749 21.5324 48.2349 21.3874C47.7799 21.2674 47.3749 21.0024 47.0749 20.6224C46.6599 20.0974 46.4949 19.4424 46.6299 18.8124C46.7399 18.2874 47.0449 17.8474 47.4949 17.5724C47.9499 17.2924 48.4949 17.2174 49.0349 17.3624C49.4899 17.4874 49.8949 17.7474 50.1949 18.1274ZM50.5849 17.8174C50.2299 17.3724 49.7399 17.0374 49.1649 16.8824C47.7899 16.5174 46.4349 17.3374 46.1449 18.7124C45.9749 19.5124 46.1999 20.3224 46.6899 20.9374C47.0449 21.3824 47.5349 21.7174 48.1099 21.8724C49.4849 22.2374 50.8399 21.4174 51.1299 20.0424C51.2999 19.2424 51.0749 18.4274 50.5849 17.8174Z" fill="white"/>
<path d="M40.7799 18.8523L44.2199 19.7723L43.9699 20.9473L40.5349 20.0273L40.7799 18.8523Z" fill="white"/>
<path d="M43.925 19.9524L43.78 20.6374L40.825 19.8474L40.97 19.1624L43.925 19.9524ZM44.515 19.5924L40.59 18.5474L40.24 20.2124L44.165 21.2574L44.515 19.5924Z" fill="white"/>
<path d="M39.155 16.2424L40.335 16.5574L39.65 19.7924L38.47 19.4774L39.155 16.2424Z" fill="white"/>
<path d="M40.0398 16.7374L39.4598 19.4824L38.7648 19.2974L39.3448 16.5524L40.0398 16.7374ZM40.6248 16.3774L38.9598 15.9324L38.1748 19.6574L39.8398 20.1024L40.6248 16.3774Z" fill="white"/>
<path d="M44.7708 27.1765L44.4404 28.6243L49.1931 29.709L49.5235 28.2612L44.7708 27.1765Z" fill="white"/>
<path d="M49.01 29.4123L44.745 28.4373L44.965 27.4773L49.23 28.4523L49.01 29.4123ZM49.385 30.0123L49.825 28.0773L44.585 26.8823L44.145 28.8173L49.385 30.0123Z" fill="white"/>
<path d="M49.78 28.5225L52.6 33.7224L51.8 34.6625L48.98 29.4625L49.78 28.5225Z" fill="white"/>
<path d="M52.2999 33.6923L51.8449 34.2273L49.2799 29.4973L49.7349 28.9623L52.2999 33.6923ZM52.9049 33.7523L49.8299 28.0823L48.6799 29.4323L51.7549 35.1023L52.9049 33.7523Z" fill="white"/>
<path d="M39.5428 25.9778L39.2124 27.4255L43.965 28.5102L44.2955 27.0625L39.5428 25.9778Z" fill="white"/>
<path d="M43.7799 28.2122L39.5149 27.2372L39.7349 26.2772L43.9999 27.2522L43.7799 28.2122ZM44.1599 28.8072L44.5999 26.8722L39.3599 25.6772L38.9199 27.6122L44.1599 28.8072Z" fill="white"/>
<path d="M36.945 21.0225L39.765 26.2224L38.965 27.1674L36.145 21.9675L36.945 21.0225Z" fill="white"/>
<path d="M39.4648 26.1924L39.0098 26.7274L36.4448 21.9974L36.8998 21.4624L39.4648 26.1924ZM40.0648 26.2574L36.9898 20.5874L35.8398 21.9374L38.9148 27.6074L40.0648 26.2574Z" fill="white"/>
<path d="M45.4699 35.0273L46.6499 37.7223L45.5799 38.2623L44.3999 35.5674L45.4699 35.0273Z" fill="white"/>
<path d="M46.325 37.6074L45.7 37.9224L44.72 35.6874L45.345 35.3724L46.325 37.6074ZM46.975 37.8424L45.595 34.6924L44.075 35.4574L45.4549 38.6074L46.975 37.8424Z" fill="white"/>
<path d="M43.5649 30.6772L46.1249 36.5272L45.0549 37.0622L42.4949 31.2172L43.5649 30.6772Z" fill="white"/>
<path d="M45.7999 36.4074L45.1749 36.7224L42.8149 31.3374L43.4399 31.0224L45.7999 36.4074ZM46.4499 36.6424L43.6899 30.3374L42.1699 31.1024L44.9299 37.4074L46.4499 36.6424Z" fill="white"/>
<path d="M44.8101 39.5223C44.9751 38.7973 45.4401 38.1973 46.0801 37.8773C46.6201 37.6073 47.2301 37.5673 47.7851 37.7673C48.3501 37.9723 48.8051 38.4023 49.0551 38.9723C49.2651 39.4523 49.3151 39.9873 49.1951 40.5123C49.0301 41.2373 48.5701 41.8373 47.9251 42.1573C47.3851 42.4273 46.7751 42.4673 46.2201 42.2673C45.6551 42.0623 45.2001 41.6323 44.9501 41.0623C44.7401 40.5773 44.6901 40.0473 44.8101 39.5223Z" fill="white"/>
<path d="M48.9501 40.4573C48.8001 41.1073 48.3851 41.6473 47.8151 41.9373C47.3351 42.1773 46.8001 42.2123 46.3101 42.0373C45.8101 41.8573 45.4101 41.4773 45.1851 40.9673C44.9951 40.5323 44.9501 40.0573 45.0601 39.5823C45.2101 38.9323 45.6251 38.3923 46.1951 38.1023C46.6751 37.8623 47.2101 37.8274 47.7001 38.0023C48.2001 38.1823 48.6001 38.5623 48.8251 39.0723C49.0151 39.5073 49.0551 39.9873 48.9501 40.4573ZM49.4351 40.5673C49.5601 40.0173 49.5201 39.4223 49.2801 38.8723C48.7101 37.5673 47.2251 37.0223 45.9651 37.6523C45.2351 38.0173 44.7401 38.7023 44.5651 39.4673C44.4401 40.0173 44.4801 40.6123 44.7201 41.1623C45.2901 42.4673 46.7751 43.0123 48.0351 42.3823C48.7651 42.0173 49.2601 41.3323 49.4351 40.5673Z" fill="white"/>
<path d="M42.5099 33.5522L43.9399 36.8122L42.8649 37.3472L41.4399 34.0872L42.5099 33.5522Z" fill="white"/>
<path d="M43.615 36.6923L42.99 37.0073L41.765 34.2073L42.39 33.8923L43.615 36.6923ZM44.265 36.9273L42.635 33.2073L41.115 33.9723L42.745 37.6923L44.265 36.9273Z" fill="white"/>
<path d="M43.5398 30.6523L44.0298 31.7673L41.0698 33.2523L40.5798 32.1323L43.5398 30.6523Z" fill="white"/>
<path d="M43.705 31.6524L41.195 32.9124L40.905 32.2524L43.415 30.9924L43.705 31.6524ZM44.355 31.8824L43.665 30.3074L40.26 32.0174L40.95 33.5924L44.355 31.8824Z" fill="white"/>
<path d="M38.4977 41.8647L37.1597 42.509L39.2749 46.9014L40.6129 46.2571L38.4977 41.8647Z" fill="white"/>
<path d="M39.3901 46.5673L37.4901 42.6223L38.3751 42.1973L40.2751 46.1423L39.3901 46.5673ZM39.1551 47.2323L40.9451 46.3723L38.6101 41.5273L36.8201 42.3873L39.1551 47.2323Z" fill="white"/>
<path d="M40.565 46.6174L38.255 52.0624L37.02 52.0224L39.325 46.5774L40.565 46.6174Z" fill="white"/>
<path d="M38.095 51.8075L37.395 51.7875L39.495 46.8325L40.195 46.8525L38.095 51.8075ZM38.42 52.3175L40.935 46.3775L39.16 46.3225L36.645 52.2625L38.42 52.3175Z" fill="white"/>
<path d="M36.1778 37.0288L34.8398 37.6731L36.9551 42.0655L38.2931 41.4211L36.1778 37.0288Z" fill="white"/>
<path d="M37.065 41.7324L35.165 37.7874L36.05 37.3624L37.95 41.3074L37.065 41.7324ZM36.835 42.3974L38.625 41.5374L36.29 36.6924L34.5 37.5524L36.835 42.3974Z" fill="white"/>
<path d="M38.4249 31.9024L36.1149 37.3524L34.8799 37.3124L37.1849 31.8674L38.4249 31.9024Z" fill="white"/>
<path d="M35.9549 37.0973L35.2549 37.0773L37.3549 32.1223L38.0549 32.1423L35.9549 37.0973ZM36.2799 37.6073L38.7949 31.6673L37.0199 31.6123L34.5049 37.5523L36.2799 37.6073Z" fill="white"/>
<path d="M32.7901 47.3024L31.4201 49.9024L30.3301 49.4024L31.7001 46.7974L32.7901 47.3024Z" fill="white"/>
<path d="M31.3051 49.5774L30.6701 49.2824L31.8051 47.1224L32.4401 47.4174L31.3051 49.5774ZM31.5301 50.2324L33.1351 47.1874L31.5901 46.4724L29.9851 49.5174L31.5301 50.2324Z" fill="white"/>
<path d="M34.9999 43.1024L32.0299 48.7474L30.9399 48.2424L33.9099 42.5974L34.9999 43.1024Z" fill="white"/>
<path d="M31.915 48.4223L31.28 48.1273L34.02 42.9223L34.655 43.2173L31.915 48.4223ZM32.14 49.0723L35.35 42.9823L33.805 42.2673L30.595 48.3573L32.14 49.0723Z" fill="white"/>
<path d="M28.8651 49.5871C29.5351 49.2621 30.2901 49.2521 30.9401 49.5521C31.4901 49.8071 31.9001 50.2571 32.0901 50.8171C32.2851 51.3871 32.2301 52.0071 31.9401 52.5621C31.6951 53.0271 31.3101 53.3971 30.8251 53.6321C30.1551 53.9521 29.4001 53.9671 28.7501 53.6671C28.2001 53.4121 27.7901 52.9621 27.6001 52.4021C27.4051 51.8321 27.4601 51.2121 27.7501 50.6571C27.9951 50.1921 28.3801 49.8221 28.8651 49.5871Z" fill="white"/>
<path d="M30.7151 53.4073C30.1151 53.6973 29.4351 53.7073 28.8501 53.4423C28.3601 53.2173 28.0001 52.8223 27.8351 52.3273C27.6651 51.8223 27.7101 51.2723 27.9701 50.7773C28.1901 50.3573 28.5351 50.0273 28.9751 49.8173C29.5751 49.5273 30.2551 49.5173 30.8401 49.7823C31.3301 50.0073 31.6901 50.4023 31.8551 50.8973C32.0251 51.4023 31.9801 51.9523 31.7201 52.4473C31.4951 52.8623 31.1501 53.1973 30.7151 53.4073ZM30.9301 53.8573C31.4401 53.6123 31.8801 53.2073 32.1601 52.6773C32.8251 51.4173 32.3251 49.9173 31.0451 49.3273C30.3051 48.9823 29.4601 49.0223 28.7551 49.3623C28.2451 49.6073 27.8051 50.0123 27.5251 50.5423C26.8601 51.8023 27.3601 53.3023 28.6401 53.8923C29.3801 54.2373 30.2251 54.1973 30.9301 53.8573Z" fill="white"/>
<path d="M32.0999 44.0673L30.4398 47.2172L29.3499 46.7122L31.0098 43.5623L32.0999 44.0673Z" fill="white"/>
<path d="M30.3299 46.8874L29.6949 46.5924L31.1199 43.8874L31.7549 44.1824L30.3299 46.8874ZM30.5499 47.5424L32.4449 43.9474L30.8999 43.2324L29.0049 46.8274L30.5499 47.5424Z" fill="white"/>
<path d="M35.0101 43.0625L34.4401 44.1425L31.4351 42.7525L32.0051 41.6775L35.0101 43.0625Z" fill="white"/>
<path d="M34.3301 43.8173L31.7801 42.6423L32.1151 42.0073L34.6651 43.1823L34.3301 43.8173ZM34.5501 44.4673L35.3501 42.9473L31.8901 41.3523L31.0901 42.8723L34.5501 44.4673Z" fill="white"/>
<path d="M21.76 45.4646L19.6448 49.8569L20.9828 50.5013L23.098 46.1089L21.76 45.4646Z" fill="white"/>
<path d="M19.9751 49.7424L21.8751 45.7974L22.7601 46.2224L20.8601 50.1674L19.9751 49.7424ZM19.3101 49.9724L21.1001 50.8324L23.4351 45.9874L21.6451 45.1274L19.3101 49.9724Z" fill="white"/>
<path d="M20.6701 50.6923L14.9751 52.2823L14.2351 51.2923L19.9301 49.6973L20.6701 50.6923Z" fill="white"/>
<path d="M15.0699 51.9973L14.6499 51.4373L19.8299 49.9873L20.2499 50.5473L15.0699 51.9973ZM14.8749 52.5673L21.0899 50.8323L20.0299 49.4124L13.8149 51.1473L14.8749 52.5673Z" fill="white"/>
<path d="M24.0984 40.6357L21.9832 45.0281L23.3211 45.6724L25.4364 41.28L24.0984 40.6357Z" fill="white"/>
<path d="M22.3099 44.9124L24.2099 40.9674L25.0949 41.3924L23.1949 45.3373L22.3099 44.9124ZM21.6399 45.1424L23.4299 46.0023L25.7649 41.1574L23.9749 40.2974L21.6399 45.1424Z" fill="white"/>
<path d="M30.8349 39.8423L25.1399 41.4373L24.3999 40.4473L30.0949 38.8523L30.8349 39.8423Z" fill="white"/>
<path d="M25.2399 41.1474L24.8199 40.5874L29.9999 39.1374L30.4199 39.6974L25.2399 41.1474ZM25.0449 41.7224L31.2599 39.9874L30.1999 38.5674L23.9849 40.3024L25.0449 41.7224Z" fill="white"/>
<path d="M15.2851 45.0373L12.3951 45.5923L12.1101 44.4273L15.0001 43.8723L15.2851 45.0373Z" fill="white"/>
<path d="M12.5849 45.3024L12.4199 44.6224L14.8149 44.1674L14.9799 44.8474L12.5849 45.3024ZM12.2099 45.8824L15.5899 45.2374L15.1849 43.5874L11.8049 44.2324L12.2099 45.8824Z" fill="white"/>
<path d="M19.95 44.1523L13.68 45.3473L13.395 44.1823L19.665 42.9873L19.95 44.1523Z" fill="white"/>
<path d="M13.8698 45.0573L13.7048 44.3773L19.4798 43.2773L19.6448 43.9573L13.8698 45.0573ZM13.4948 45.6373L20.2548 44.3473L19.8498 42.6973L13.0898 43.9873L13.4948 45.6373Z" fill="white"/>
<path d="M11.05 43.3974C11.72 43.7224 12.2 44.3024 12.375 44.9974C12.52 45.5874 12.425 46.1874 12.105 46.6824C11.78 47.1924 11.26 47.5324 10.645 47.6524C10.13 47.7524 9.6 47.6824 9.115 47.4474C8.445 47.1274 7.965 46.5424 7.79 45.8474C7.645 45.2574 7.74 44.6574 8.06 44.1624C8.385 43.6524 8.905 43.3124 9.52 43.1924C10.04 43.0924 10.565 43.1624 11.05 43.3974Z" fill="white"/>
<path d="M9.22002 47.2223C8.62002 46.9323 8.18503 46.4073 8.03003 45.7873C7.90003 45.2673 7.98502 44.7373 8.27002 44.2973C8.56002 43.8473 9.02003 43.5423 9.56503 43.4373C10.03 43.3473 10.505 43.4123 10.94 43.6223C11.54 43.9123 11.975 44.4373 12.13 45.0573C12.26 45.5773 12.175 46.1073 11.89 46.5473C11.6 46.9973 11.14 47.3023 10.595 47.4073C10.13 47.4973 9.65502 47.4323 9.22002 47.2223ZM9.00502 47.6723C9.51502 47.9173 10.105 48.0123 10.69 47.8973C12.09 47.6323 12.955 46.3073 12.615 44.9373C12.42 44.1423 11.865 43.5073 11.16 43.1673C10.65 42.9223 10.06 42.8273 9.47503 42.9423C8.07503 43.2073 7.21003 44.5323 7.55003 45.9023C7.74003 46.6973 8.29502 47.3323 9.00502 47.6723Z" fill="white"/>
<path d="M17.385 42.4824L13.89 43.1474L13.605 41.9824L17.1 41.3174L17.385 42.4824Z" fill="white"/>
<path d="M14.075 42.8573L13.91 42.1773L16.915 41.6023L17.08 42.2823L14.075 42.8573ZM13.705 43.4373L17.695 42.6773L17.29 41.0273L13.3 41.7874L13.705 43.4373Z" fill="white"/>
<path d="M19.985 44.1325L18.785 44.3575L18 41.1475L19.195 40.9175L19.985 44.1325Z" fill="white"/>
<path d="M18.9749 44.0674L18.3049 41.3424L19.0099 41.2074L19.6799 43.9324L18.9749 44.0674ZM18.5999 44.6474L20.2899 44.3274L19.3799 40.6274L17.6899 40.9474L18.5999 44.6474Z" fill="white"/>
<path d="M9.8398 35.2664L5.08716 36.3511L5.41757 37.7988L10.1702 36.7141L9.8398 35.2664Z" fill="white"/>
<path d="M5.39004 36.5424L9.65504 35.5674L9.87504 36.5274L5.61004 37.5024L5.39004 36.5424ZM4.79004 36.1674L5.23004 38.1024L10.47 36.9074L10.03 34.9724L4.79004 36.1674Z" fill="white"/>
<path d="M5.08491 37.6773L0.284912 34.2173L0.599915 33.0173L5.39491 36.4823L5.08491 37.6773Z" fill="white"/>
<path d="M0.570003 34.1123L0.75 33.4323L5.11 36.5823L4.93 37.2623L0.570003 34.1123ZM0 34.3173L5.23 38.0923L5.68 36.3773L0.450001 32.6023L0 34.3173Z" fill="white"/>
<path d="M15.07 34.0818L10.3174 35.1665L10.6478 36.6142L15.4004 35.5295L15.07 34.0818Z" fill="white"/>
<path d="M10.6199 35.3575L14.8849 34.3825L15.1049 35.3425L10.8399 36.3175L10.6199 35.3575ZM10.0249 34.9775L10.4649 36.9125L15.7049 35.7175L15.2649 33.7825L10.0249 34.9775Z" fill="white"/>
<path d="M19.9 38.8625L15.105 35.4025L15.415 34.2075L20.215 37.6675L19.9 38.8625Z" fill="white"/>
<path d="M15.3901 35.3025L15.5701 34.6225L19.9301 37.7725L19.7501 38.4525L15.3901 35.3025ZM14.8201 35.5075L20.0501 39.2825L20.5001 37.5675L15.2701 33.7925L14.8201 35.5075Z" fill="white"/>
<path d="M6.14491 29.9424L3.90991 28.0274L4.64491 27.0774L6.87491 28.9924L6.14491 29.9424Z" fill="white"/>
<path d="M4.25507 27.9923L4.68007 27.4373L6.53007 29.0273L6.10507 29.5823L4.25507 27.9923ZM3.57007 28.0623L6.18006 30.3023L7.22007 28.9573L4.61007 26.7173L3.57007 28.0623Z" fill="white"/>
<path d="M9.74503 33.0374L4.90503 28.8824L5.63503 27.9324L10.48 32.0874L9.74503 33.0374Z" fill="white"/>
<path d="M5.24506 28.8475L5.67006 28.2925L10.1351 32.1225L9.71006 32.6775L5.24506 28.8475ZM4.56006 28.9175L9.78506 33.3975L10.8251 32.0525L5.60006 27.5725L4.56006 28.9175Z" fill="white"/>
<path d="M4.78988 25.6074C4.95488 26.3324 4.79988 27.0724 4.35988 27.6424C3.98988 28.1224 3.45988 28.4224 2.86988 28.4824C2.26988 28.5424 1.67988 28.3524 1.20488 27.9474C0.804882 27.6024 0.52988 27.1474 0.40988 26.6224C0.24488 25.8974 0.399881 25.1574 0.839881 24.5874C1.20988 24.1074 1.73988 23.8074 2.32988 23.7474C2.92988 23.6874 3.51988 23.8774 3.99488 24.2824C4.39488 24.6274 4.66988 25.0824 4.78988 25.6074Z" fill="white"/>
<path d="M0.65492 26.5624C0.50492 25.9125 0.644918 25.2474 1.03492 24.7375C1.36492 24.3125 1.82992 24.0475 2.34992 23.9925C2.87992 23.9375 3.40492 24.1075 3.82992 24.4675C4.18992 24.7775 4.43492 25.1875 4.54492 25.6575C4.69492 26.3075 4.55492 26.9724 4.16492 27.4824C3.83492 27.9074 3.36992 28.1724 2.84992 28.2274C2.31992 28.2824 1.79492 28.1124 1.36992 27.7524C1.00992 27.4475 0.75992 27.0324 0.65492 26.5624ZM0.164919 26.6725C0.289919 27.2224 0.584919 27.7424 1.03992 28.1324C2.11992 29.0624 3.69492 28.9074 4.55492 27.7924C5.05492 27.1424 5.20492 26.3124 5.02992 25.5525C4.90492 25.0025 4.60992 24.4825 4.15492 24.0925C3.07492 23.1625 1.49992 23.3175 0.639921 24.4325C0.139921 25.0824 -0.0100812 25.9125 0.164919 26.6725Z" fill="white"/>
<path d="M9.45 29.9924L6.75 27.6724L7.485 26.7224L10.185 29.0424L9.45 29.9924Z" fill="white"/>
<path d="M7.09503 27.6373L7.52003 27.0823L9.84003 29.0723L9.41503 29.6273L7.09503 27.6373ZM6.40503 27.7073L9.48503 30.3523L10.525 29.0073L7.44503 26.3623L6.40503 27.7073Z" fill="white"/>
<path d="M9.78498 33.0524L8.85498 32.2574L10.875 29.6375L11.805 30.4324L9.78498 33.0524Z" fill="white"/>
<path d="M9.19989 32.2223L10.9149 29.9973L11.4599 30.4673L9.74489 32.6923L9.19989 32.2223ZM8.51489 32.2923L9.81989 33.4123L12.1449 30.3973L10.8399 29.2773L8.51489 32.2923Z" fill="white"/>
<path d="M6.57629 16.5607L5.65039 17.7217L9.46167 20.7612L10.3876 19.6003L6.57629 16.5607Z" fill="white"/>
<path d="M6.61505 16.9123L10.035 19.6423L9.42005 20.4123L6.00005 17.6823L6.61505 16.9123ZM6.54005 16.2073L5.30005 17.7573L9.50505 21.1123L10.745 19.5623L6.54005 16.2073Z" fill="white"/>
<path d="M5.535 17.3773L5.25 11.4673L6.385 10.9673L6.67 16.8773L5.535 17.3773Z" fill="white"/>
<path d="M5.50987 11.6273L6.14987 11.3423L6.40987 16.7173L5.76987 17.0023L5.50987 11.6273ZM4.99487 11.3073L5.30487 17.7523L6.92487 17.0323L6.61487 10.5923L4.99487 11.3073Z" fill="white"/>
<path d="M10.766 19.9106L9.84009 21.0715L13.6514 24.1111L14.5773 22.9501L10.766 19.9106Z" fill="white"/>
<path d="M10.8049 20.2624L14.2249 22.9924L13.6099 23.7624L10.1899 21.0324L10.8049 20.2624ZM10.7249 19.5574L9.48486 21.1074L13.6899 24.4624L14.9299 22.9124L10.7249 19.5574Z" fill="white"/>
<path d="M13.8499 29.7022L13.5649 23.7922L14.6949 23.2922L14.9799 29.2022L13.8499 29.7022Z" fill="white"/>
<path d="M13.8199 23.9524L14.4599 23.6673L14.7199 29.0423L14.0799 29.3273L13.8199 23.9524ZM13.3049 23.6324L13.6149 30.0773L15.2349 29.3573L14.9249 22.9124L13.3049 23.6324Z" fill="white"/>
<path d="M12.2449 13.3822L12.3499 10.4473L13.5499 10.4272L13.4449 13.3622L12.2449 13.3822Z" fill="white"/>
<path d="M12.5899 10.6922L13.2899 10.6822L13.1999 13.1222L12.4999 13.1322L12.5899 10.6922ZM12.1099 10.1972L11.9849 13.6372L13.6849 13.6072L13.8099 10.1672L12.1099 10.1972Z" fill="white"/>
<path d="M12.0701 18.1324L12.3001 11.7524L13.5001 11.7324L13.2701 18.1124L12.0701 18.1324Z" fill="white"/>
<path d="M12.5451 11.9973L13.2451 11.9873L13.0351 17.8623L12.3351 17.8723L12.5451 11.9973ZM12.0601 11.5073L11.8101 18.3873L13.5101 18.3573L13.7601 11.4773L12.0601 11.5073Z" fill="white"/>
<path d="M14.7899 9.62227C14.3249 10.2023 13.6499 10.5423 12.9349 10.5573C12.3299 10.5673 11.7649 10.3373 11.3499 9.91727C10.9299 9.48727 10.7049 8.90227 10.7299 8.27728C10.7499 7.75228 10.9349 7.25228 11.2699 6.83228C11.7349 6.25228 12.4099 5.91229 13.1249 5.89729C13.7299 5.88729 14.2949 6.11728 14.7099 6.53728C15.1299 6.96728 15.3549 7.55228 15.3299 8.17728C15.3099 8.70228 15.1249 9.20228 14.7899 9.62227Z" fill="white"/>
<path d="M11.4649 6.98237C11.8799 6.45737 12.4899 6.15238 13.1299 6.14238C13.6649 6.13238 14.1649 6.33237 14.5299 6.70737C14.9049 7.08737 15.0999 7.60737 15.0799 8.16237C15.0649 8.63737 14.8949 9.08237 14.5949 9.46237C14.1799 9.98737 13.5699 10.2924 12.9299 10.3024C12.3949 10.3124 11.8949 10.1124 11.5299 9.73736C11.1549 9.35736 10.9599 8.83737 10.9799 8.28237C10.9949 7.81237 11.1649 7.36237 11.4649 6.98237ZM11.0749 6.67238C10.7199 7.11738 10.4999 7.66738 10.4799 8.26737C10.4299 9.69237 11.5299 10.8274 12.9349 10.8024C13.7549 10.7874 14.4949 10.3874 14.9849 9.77736C15.3399 9.33237 15.5599 8.78237 15.5799 8.18237C15.6299 6.75737 14.5299 5.62238 13.1249 5.64738C12.3049 5.65738 11.5649 6.06238 11.0749 6.67238Z" fill="white"/>
<path d="M14.27 16.0024L14.4 12.4424L15.595 12.4224L15.47 15.9824L14.27 16.0024Z" fill="white"/>
<path d="M14.64 12.6872L15.34 12.6772L15.23 15.7322L14.53 15.7422L14.64 12.6872ZM14.155 12.1972L14.01 16.2572L15.71 16.2272L15.855 12.1672L14.155 12.1972Z" fill="white"/>
<path d="M12.085 18.1673L12.13 16.9473L15.435 16.8923L15.39 18.1123L12.085 18.1673Z" fill="white"/>
<path d="M12.37 17.1923L15.175 17.1473L15.15 17.8673L12.345 17.9123L12.37 17.1923ZM11.885 16.7023L11.825 18.4223L15.635 18.3623L15.695 16.6423L11.885 16.7023Z" fill="white"/>
<path d="M22.9799 5.37744H21.4949V10.2524H22.9799V5.37744Z" fill="white"/>
<path d="M22.7299 5.62744V10.0024H21.7449V5.62744H22.7299ZM23.2299 5.12744H21.2449V10.5024H23.2299V5.12744Z" fill="white"/>
<path d="M21.6899 5.07248L26.1349 1.16748L27.2299 1.74248L22.7899 5.64747L21.6899 5.07248Z" fill="white"/>
<path d="M26.17 1.46743L26.79 1.79242L22.75 5.34242L22.13 5.01742L26.17 1.46743ZM26.095 0.867432L21.25 5.12742L22.825 5.94742L27.67 1.68743L26.095 0.867432Z" fill="white"/>
<path d="M22.975 10.7424H21.49V15.6174H22.975V10.7424Z" fill="white"/>
<path d="M22.725 10.9924V15.3674H21.74V10.9924H22.725ZM23.225 10.4924H21.24V15.8674H23.225V10.4924Z" fill="white"/>
<path d="M17.24 19.2575L21.68 15.3525L22.775 15.9225L18.335 19.8325L17.24 19.2575Z" fill="white"/>
<path d="M21.715 15.6525L22.335 15.9775L18.295 19.5275L17.675 19.2025L21.715 15.6525ZM21.645 15.0525L16.8 19.3125L18.375 20.1325L23.22 15.8725L21.645 15.0525Z" fill="white"/>
<path d="M28.9949 7.82739L31.3599 6.07739L32.1199 7.00739L29.7599 8.75239L28.9949 7.82739Z" fill="white"/>
<path d="M31.315 6.42231L31.76 6.96231L29.8 8.4123L29.355 7.8723L31.315 6.42231ZM31.4 5.7373L28.635 7.78231L29.715 9.0923L32.48 7.04731L31.4 5.7373Z" fill="white"/>
<path d="M25.175 10.6524L30.305 6.85742L31.07 7.78242L25.94 11.5824L25.175 10.6524Z" fill="white"/>
<path d="M30.2651 7.19733L30.7101 7.73732L25.9851 11.2373L25.5401 10.6973L30.2651 7.19733ZM30.3501 6.51733L24.8201 10.6123L25.9001 11.9223L31.4301 7.82733L30.3501 6.51733Z" fill="white"/>
<path d="M33.525 7.47241C32.78 7.47241 32.095 7.15741 31.64 6.60241C31.255 6.13242 31.08 5.55242 31.155 4.96742C31.23 4.36742 31.5449 3.83242 32.0499 3.46242C32.4749 3.14742 32.9799 2.98242 33.5199 2.98242C34.2649 2.98242 34.95 3.29742 35.405 3.85242C35.79 4.32242 35.965 4.90241 35.89 5.48741C35.815 6.08741 35.4999 6.62241 34.9949 6.99241C34.5699 7.30741 34.06 7.47241 33.525 7.47241Z" fill="white"/>
<path d="M33.515 3.23242C34.185 3.23242 34.8 3.51742 35.21 4.01242C35.55 4.42742 35.705 4.94242 35.64 5.46242C35.575 5.99242 35.295 6.46741 34.845 6.79741C34.465 7.07741 34.01 7.22741 33.525 7.22741C32.855 7.22741 32.24 6.94241 31.83 6.44742C31.49 6.03242 31.335 5.51741 31.4 4.99742C31.465 4.46742 31.745 3.99242 32.195 3.66242C32.575 3.37742 33.03 3.23242 33.515 3.23242ZM33.515 2.73242C32.95 2.73242 32.38 2.90242 31.895 3.26242C30.75 4.11242 30.545 5.67742 31.445 6.76741C31.965 7.39741 32.74 7.72741 33.525 7.72741C34.09 7.72741 34.66 7.55741 35.145 7.19741C36.29 6.34742 36.495 4.78242 35.595 3.69242C35.07 3.06242 34.295 2.73242 33.515 2.73242Z" fill="white"/>
<path d="M28.21 11.0422L31.075 8.92725L31.835 9.85225L28.975 11.9672L28.21 11.0422Z" fill="white"/>
<path d="M31.0301 9.26728L31.4751 9.80727L29.0151 11.6273L28.5701 11.0873L31.0301 9.26728ZM31.1151 8.58228L27.8501 10.9973L28.9301 12.3073L32.1951 9.89228L31.1151 8.58228Z" fill="white"/>
<path d="M25.155 10.6874L26.135 9.9624L28.24 12.5124L27.26 13.2374L25.155 10.6874Z" fill="white"/>
<path d="M26.0949 10.3024L27.8799 12.4674L27.2999 12.8974L25.5149 10.7324L26.0949 10.3024ZM26.1799 9.61743L24.7949 10.6424L27.2199 13.5824L28.6049 12.5574L26.1799 9.61743Z" fill="white"/>
<path d="M65.28 22.2724L67.78 24.7774H74.51L78.085 28.3524V33.4574L74.51 37.0324H66.06L62.645 33.6174L64.14 32.1574L67.1 35.0824H73.47L75.975 32.5824V29.2324L73.47 26.7274H66.74L63.165 23.1524V18.3074L66.74 14.7324H74.28L77.305 17.7574L75.81 19.1874L73.24 16.6874H67.78L65.28 19.1874V22.2724Z" fill="white"/>
<path d="M90.7699 37.0274V34.3625H90.7099C90.2199 35.3225 89.5549 36.0624 88.7099 36.5874C87.8649 37.1124 86.9099 37.3774 85.8449 37.3774C85.1199 37.3774 84.4699 37.2724 83.8899 37.0674C83.3099 36.8624 82.8149 36.5724 82.4099 36.1974C82.0049 35.8224 81.6899 35.3674 81.4699 34.8424C81.2499 34.3174 81.1399 33.7324 81.1399 33.0975C81.1399 31.7425 81.5599 30.6575 82.3999 29.8525C83.2399 29.0475 84.5099 28.5225 86.2099 28.2775L90.7649 27.6175C90.7649 24.7375 89.6449 23.2975 87.4099 23.2975C85.6599 23.2975 84.0399 23.9375 82.5449 25.2175V23.1675C82.8549 22.9425 83.2099 22.7425 83.6049 22.5575C83.9999 22.3775 84.4199 22.2225 84.8549 22.0875C85.2899 21.9525 85.7449 21.8525 86.2099 21.7775C86.6749 21.7025 87.1249 21.6675 87.5649 21.6675C89.2349 21.6675 90.4949 22.1375 91.3499 23.0725C92.2049 24.0075 92.6299 25.4075 92.6299 27.2625V37.0174H90.7699V37.0274ZM86.8999 29.7475C86.2249 29.8475 85.6499 29.9675 85.1699 30.1125C84.6899 30.2575 84.2949 30.4575 83.9849 30.7075C83.6699 30.9575 83.4449 31.2625 83.2949 31.6325C83.1449 32.0025 83.0749 32.4525 83.0749 32.9874C83.0749 33.3874 83.1449 33.7575 83.2849 34.1025C83.4249 34.4425 83.6299 34.7375 83.8999 34.9875C84.1699 35.2375 84.4949 35.4275 84.8799 35.5675C85.2649 35.7025 85.7049 35.7724 86.1899 35.7724C86.8549 35.7724 87.4649 35.6474 88.0199 35.3924C88.5749 35.1375 89.0599 34.7875 89.4649 34.3375C89.8699 33.8875 90.1899 33.3525 90.4149 32.7275C90.6449 32.1025 90.7599 31.4225 90.7599 30.6925V29.2125L86.8999 29.7475Z" fill="white"/>
<path d="M104.145 16.5923C103.725 16.3173 103.185 16.1823 102.52 16.1823C100.76 16.1823 99.8849 17.3323 99.8849 19.6223V22.0223H103.62V23.6623H99.8849V37.0223H98.0099V23.6623H95.3899V22.0223H98.0099V19.5023C98.0099 18.7523 98.1049 18.0673 98.2949 17.4573C98.4849 16.8473 98.7649 16.3224 99.1349 15.8924C99.5049 15.4574 99.9699 15.1224 100.535 14.8874C101.1 14.6524 101.745 14.5374 102.475 14.5374C103.18 14.5374 103.735 14.6324 104.145 14.8174V16.5923Z" fill="white"/>
<path d="M106.885 29.8625C106.895 30.7825 107.015 31.6075 107.25 32.3375C107.485 33.0675 107.82 33.6925 108.26 34.1975C108.7 34.7075 109.235 35.0925 109.865 35.3625C110.495 35.6325 111.205 35.7675 111.995 35.7675C113.685 35.7675 115.28 35.1775 116.785 33.9975V35.8425C115.35 36.8675 113.61 37.3824 111.57 37.3824C110.565 37.3824 109.65 37.2074 108.83 36.8574C108.01 36.5075 107.31 35.9975 106.735 35.3275C106.16 34.6575 105.715 33.8375 105.4 32.8575C105.09 31.8825 104.93 30.7675 104.93 29.5175C104.93 28.3925 105.1 27.3525 105.445 26.3975C105.785 25.4425 106.26 24.6125 106.865 23.9125C107.47 23.2125 108.19 22.6675 109.02 22.2725C109.85 21.8775 110.76 21.6775 111.745 21.6775C112.71 21.6775 113.565 21.8475 114.31 22.1825C115.055 22.5175 115.675 23.0025 116.18 23.6275C116.685 24.2525 117.065 25.0125 117.33 25.9125C117.595 26.8125 117.725 27.8175 117.725 28.9325V29.8725H106.885V29.8625ZM115.79 28.2225C115.76 26.6625 115.39 25.4475 114.675 24.5875C113.96 23.7275 112.97 23.2975 111.7 23.2975C111.065 23.2975 110.475 23.4075 109.935 23.6325C109.395 23.8575 108.915 24.1825 108.505 24.6075C108.095 25.0325 107.755 25.5525 107.485 26.1625C107.215 26.7725 107.03 27.4575 106.92 28.2225H115.79Z" fill="white"/>
<path d="M123.075 22.2724L125.575 24.7774H132.305L135.88 28.3524V33.4574L132.305 37.0324H123.855L120.44 33.6174L121.935 32.1574L124.895 35.0824H131.265L133.765 32.5824V29.2324L131.265 26.7274H124.535L120.96 23.1524V18.3074L124.535 14.7324H132.075L135.095 17.7574L133.6 19.1874L131.035 16.6874H125.575L123.075 19.1874V22.2724Z" fill="white"/>
<path d="M146.06 37.3775C144.945 37.3775 143.95 37.1924 143.065 36.8224C142.18 36.4524 141.425 35.9275 140.8 35.2475C140.175 34.5675 139.695 33.7575 139.365 32.8075C139.035 31.8625 138.865 30.8125 138.865 29.6575C138.865 28.4075 139.04 27.2875 139.39 26.3025C139.74 25.3175 140.24 24.4775 140.89 23.7925C141.54 23.1075 142.325 22.5775 143.24 22.2175C144.16 21.8575 145.185 21.6775 146.315 21.6775C147.4 21.6775 148.375 21.8575 149.245 22.2125C150.115 22.5675 150.85 23.0825 151.455 23.7575C152.06 24.4325 152.525 25.2525 152.845 26.2175C153.165 27.1825 153.33 28.2825 153.33 29.5125C153.33 30.6825 153.16 31.7525 152.825 32.7125C152.49 33.6725 152.005 34.5025 151.38 35.1975C150.755 35.8924 149.995 36.4274 149.095 36.8074C148.195 37.1874 147.195 37.3775 146.06 37.3775ZM146.21 23.3025C145.39 23.3025 144.65 23.4425 143.985 23.7275C143.32 24.0125 142.75 24.4225 142.28 24.9675C141.81 25.5125 141.445 26.1725 141.19 26.9575C140.935 27.7425 140.81 28.6325 140.81 29.6325C140.81 30.5725 140.935 31.4125 141.19 32.1675C141.445 32.9175 141.805 33.5625 142.265 34.1025C142.73 34.6375 143.295 35.0525 143.955 35.3425C144.62 35.6325 145.36 35.7724 146.18 35.7724C147.02 35.7724 147.76 35.6325 148.405 35.3575C149.05 35.0825 149.595 34.6725 150.045 34.1425C150.495 33.6125 150.835 32.9575 151.065 32.1875C151.295 31.4175 151.41 30.5375 151.41 29.5525C151.41 27.5325 150.96 25.9875 150.06 24.9175C149.16 23.8475 147.88 23.3025 146.21 23.3025Z" fill="white"/>
<path d="M164.11 16.5923C163.69 16.3173 163.15 16.1823 162.485 16.1823C160.725 16.1823 159.85 17.3323 159.85 19.6223V22.0223H163.585V23.6623H159.85V37.0223H157.975V23.6623H155.355V22.0223H157.975V19.5023C157.975 18.7523 158.07 18.0673 158.26 17.4573C158.45 16.8473 158.73 16.3224 159.1 15.8924C159.47 15.4574 159.935 15.1224 160.5 14.8874C161.065 14.6524 161.71 14.5374 162.44 14.5374C163.145 14.5374 163.7 14.6324 164.11 14.8174V16.5923Z" fill="white"/>
<path d="M172.4 36.8523C171.755 37.1723 171.05 37.3373 170.29 37.3373C167.87 37.3373 166.655 35.9423 166.655 33.1473V23.6673H164.02V22.0273H166.655V18.2473L168.53 17.6323V22.0273H172.395V23.6673H168.53V32.8523C168.53 33.8673 168.695 34.6023 169.03 35.0473C169.36 35.4973 169.925 35.7223 170.715 35.7223C171.3 35.7223 171.86 35.5473 172.4 35.1973V36.8523Z" fill="white"/>
</svg>
