<svg width="30" height="31" viewBox="0 0 30 31" fill="none" xmlns="http://www.w3.org/2000/svg">
<path d="M24.375 26.625L17.375 19.625C16.75 20.125 16.0312 20.5208 15.2188 20.8125C14.4062 21.1042 13.5417 21.25 12.625 21.25C10.3542 21.25 8.4325 20.4633 6.86 18.89C5.2875 17.3167 4.50083 15.395 4.5 13.125C4.5 10.8542 5.28667 8.9325 6.86 7.36C8.43333 5.7875 10.355 5.00083 12.625 5C14.8958 5 16.8175 5.78667 18.39 7.36C19.9625 8.93333 20.7492 10.855 20.75 13.125C20.75 14.0417 20.6042 14.9062 20.3125 15.7188C20.0208 16.5312 19.625 17.25 19.125 17.875L26.1562 24.9062C26.3854 25.1354 26.5 25.4167 26.5 25.75C26.5 26.0833 26.375 26.375 26.125 26.625C25.8958 26.8542 25.6042 26.9688 25.25 26.9688C24.8958 26.9688 24.6042 26.8542 24.375 26.625ZM12.625 18.75C14.1875 18.75 15.5158 18.2029 16.61 17.1088C17.7042 16.0146 18.2508 14.6867 18.25 13.125C18.25 11.5625 17.7029 10.2342 16.6088 9.14C15.5146 8.04583 14.1867 7.49917 12.625 7.5C11.0625 7.5 9.73417 8.04708 8.64 9.14125C7.54583 10.2354 6.99917 11.5633 7 13.125C7 14.6875 7.54708 16.0158 8.64125 17.11C9.73542 18.2042 11.0633 18.7508 12.625 18.75Z" fill="white"/>
</svg>
