<svg width="312" height="72" viewBox="0 0 312 72" fill="none" xmlns="http://www.w3.org/2000/svg">
<path d="M30.6399 6.01367H28.6599V12.5139H30.6399V6.01367Z" fill="#020203"/>
<path d="M30.3067 6.34686V12.1804H28.9933V6.34686H30.3067ZM30.9733 5.68018H28.3267V12.8471H30.9733V5.68018Z" fill="#020203"/>
<path d="M28.9199 5.60673L34.8399 0.399902L36.3066 1.15993L30.3866 6.37343L28.9199 5.60673Z" fill="#020203"/>
<path d="M34.8933 0.800024L35.7199 1.23337L30.3333 5.96686L29.5066 5.5335L34.8933 0.800024ZM34.7933 0L28.3333 5.68017L30.4333 6.77354L36.8933 1.09337L34.7933 0Z" fill="#020203"/>
<path d="M30.6267 13.167H28.6467V19.6672H30.6267V13.167Z" fill="#020203"/>
<path d="M30.2932 13.5007V19.3342H28.9799V13.5007H30.2932ZM30.9599 12.834H28.3132V20.0009H30.9599V12.834Z" fill="#020203"/>
<path d="M22.98 24.5206L28.9066 19.3071L30.3666 20.0738L24.4466 25.2807L22.98 24.5206Z" fill="#020203"/>
<path d="M28.9533 19.7139L29.78 20.1473L24.3933 24.8807L23.5666 24.4474L28.9533 19.7139ZM28.8533 18.9072L22.3933 24.5874L24.4933 25.6808L30.9533 20.0006L28.8533 18.9072Z" fill="#020203"/>
<path d="M38.6599 9.28067L41.8132 6.94727L42.8266 8.18063L39.6799 10.514L38.6599 9.28067Z" fill="#020203"/>
<path d="M41.7533 7.40702L42.3466 8.12704L39.7333 10.0604L39.1399 9.34041L41.7533 7.40702ZM41.8666 6.49365L38.1799 9.22041L39.6199 10.9671L43.3066 8.24038L41.8666 6.49365Z" fill="#020203"/>
<path d="M33.5667 13.047L40.4066 7.98682L41.4267 9.22019L34.5867 14.2804L33.5667 13.047Z" fill="#020203"/>
<path d="M40.3535 8.44021L40.9468 9.16024L34.6468 13.8271L34.0535 13.107L40.3535 8.44021ZM40.4668 7.52686L33.0935 12.987L34.5335 14.7338L41.9068 9.27357L40.4668 7.52686Z" fill="#020203"/>
<path d="M44.7 8.80717C43.7067 8.80717 42.7934 8.38716 42.1867 7.64714C41.6734 7.02045 41.44 6.24709 41.54 5.46706C41.64 4.66704 42.06 3.95368 42.7334 3.46033C43.3 3.04031 43.9733 2.82031 44.6933 2.82031C45.6867 2.82031 46.6 3.24033 47.2067 3.98035C47.72 4.60704 47.9534 5.38039 47.8534 6.16042C47.7534 6.96044 47.3334 7.6738 46.66 8.16715C46.0934 8.58717 45.4133 8.80717 44.7 8.80717Z" fill="#020203"/>
<path d="M44.68 3.14667C45.5733 3.14667 46.3933 3.52668 46.94 4.1867C47.3933 4.74005 47.6 5.42674 47.5133 6.12009C47.4267 6.82678 47.0533 7.46013 46.4533 7.90015C45.9467 8.27349 45.34 8.4735 44.6933 8.4735C43.8 8.4735 42.98 8.09349 42.4333 7.43347C41.98 6.88012 41.7733 6.19343 41.86 5.50008C41.9467 4.79339 42.32 4.16003 42.92 3.72002C43.4267 3.34668 44.04 3.14667 44.68 3.14667ZM44.68 2.47998C43.9267 2.47998 43.1667 2.70665 42.52 3.18667C40.9933 4.32004 40.72 6.40677 41.92 7.86015C42.6133 8.70017 43.6467 9.14019 44.6933 9.14019C45.4467 9.14019 46.2067 8.91351 46.8533 8.4335C48.38 7.30013 48.6533 5.2134 47.4533 3.76002C46.76 2.91999 45.7267 2.47998 44.68 2.47998Z" fill="#020203"/>
<path d="M45.8626 5.82977C45.87 5.21862 45.3507 4.71688 44.7027 4.7091C44.0548 4.70132 43.5235 5.19046 43.5162 5.80161C43.5089 6.41276 44.0282 6.91451 44.6762 6.92228C45.3241 6.93006 45.8553 6.44092 45.8626 5.82977Z" fill="white"/>
<path d="M37.6135 13.5675L41.4335 10.7407L42.4469 11.9808L38.6335 14.8008L37.6135 13.5675Z" fill="#020203"/>
<path d="M41.3735 11.2005L41.9669 11.9205L38.6869 14.3472L38.0935 13.6272L41.3735 11.2005ZM41.4869 10.2871L37.1335 13.5072L38.5735 15.2539L42.9269 12.0338L41.4869 10.2871Z" fill="#020203"/>
<path d="M33.54 13.094L34.8467 12.1206L37.6534 15.5274L36.3467 16.4941L33.54 13.094Z" fill="#020203"/>
<path d="M34.7935 12.5804L37.1735 15.4671L36.4001 16.0405L34.0201 13.1537L34.7935 12.5804ZM34.9001 11.667L33.0535 13.0337L36.2868 16.9538L38.1335 15.5871L34.9001 11.667Z" fill="#020203"/>
<path d="M54.6933 12.2655L49.6116 16.3184L50.8461 17.8664L55.9278 13.8135L54.6933 12.2655Z" fill="#020203"/>
<path d="M55.4599 13.767L50.8999 17.4071L50.0799 16.3804L54.6399 12.7403L55.4599 13.767ZM56.3999 13.867L54.7466 11.8003L49.1399 16.2738L50.7932 18.3405L56.3999 13.867Z" fill="#020203"/>
<path d="M55.1731 12.2202L62.9398 13.6069L63.2531 15.2203L55.4931 13.8403L55.1731 12.2202Z" fill="#020203"/>
<path d="M62.6532 13.8939L62.8332 14.8139L55.7732 13.5539L55.5932 12.6338L62.6532 13.8939ZM63.2198 13.3139L54.7532 11.8071L55.2065 14.1272L63.6732 15.6339L63.2198 13.3139Z" fill="#020203"/>
<path d="M49.0949 16.7201L44.0132 20.7729L45.2477 22.321L50.3294 18.2681L49.0949 16.7201Z" fill="#020203"/>
<path d="M49.8665 18.214L45.3065 21.8541L44.4865 20.8274L49.0465 17.1873L49.8665 18.214ZM50.7998 18.3206L49.1465 16.2539L43.5398 20.7274L45.1931 22.7941L50.7998 18.3206Z" fill="#020203"/>
<path d="M36.6865 19.3677L44.4532 20.7544L44.7665 22.3744L37.0065 20.9877L36.6865 19.3677Z" fill="#020203"/>
<path d="M44.1666 21.0408L44.3466 21.9609L37.2866 20.7008L37.1066 19.7808L44.1666 21.0408ZM44.7333 20.4608L36.2666 18.9541L36.7199 21.2742L45.1866 22.7809L44.7333 20.4608Z" fill="#020203"/>
<path d="M58.3733 22.1274L62.1666 23.1341L61.8333 24.7009L58.0466 23.6875L58.3733 22.1274Z" fill="#020203"/>
<path d="M61.7731 23.3744L61.5797 24.2878L58.4331 23.4477L58.6264 22.5344L61.7731 23.3744ZM62.5531 22.8944L58.1197 21.7144L57.6531 23.9344L62.0864 25.1145L62.5531 22.8944Z" fill="#020203"/>
<path d="M52.2598 20.4937L60.4798 22.6871L60.1465 24.2538L51.9265 22.0604L52.2598 20.4937Z" fill="#020203"/>
<path d="M60.0865 22.9275L59.8931 23.8409L52.3131 21.8208L52.5065 20.9074L60.0865 22.9275ZM60.8731 22.4475L52.0065 20.0874L51.5398 22.3075L60.4065 24.6676L60.8731 22.4475Z" fill="#020203"/>
<path d="M62.5131 26.5475C61.8931 25.7742 61.6531 24.7941 61.8531 23.8608C62.0197 23.0674 62.4797 22.4074 63.1531 21.9941C63.8397 21.574 64.6597 21.4607 65.4664 21.674C66.1464 21.8541 66.7397 22.2474 67.1864 22.8074C67.8064 23.5808 68.0464 24.5608 67.8464 25.4942C67.6797 26.2875 67.2197 26.9475 66.5464 27.3609C65.8597 27.7809 65.0397 27.8942 64.2331 27.6809C63.5531 27.5009 62.9597 27.1076 62.5131 26.5475Z" fill="#020203"/>
<path d="M66.9264 23.0144C67.4797 23.7144 67.6997 24.5877 67.5197 25.4278C67.3731 26.1278 66.9664 26.7145 66.3664 27.0812C65.7597 27.4545 65.0331 27.5545 64.3131 27.3612C63.7064 27.2012 63.1664 26.8478 62.7664 26.3411C62.2131 25.6411 61.9931 24.7678 62.1731 23.9277C62.3197 23.2277 62.7264 22.641 63.3264 22.2743C63.9331 21.901 64.6597 21.801 65.3797 21.9943C65.9864 22.1543 66.5264 22.5077 66.9264 23.0144ZM67.4464 22.5944C66.9731 22.001 66.3197 21.5543 65.5531 21.3476C63.7197 20.861 61.9131 21.9543 61.5264 23.7877C61.2997 24.8544 61.5997 25.9345 62.2531 26.7545C62.7264 27.3478 63.3797 27.7945 64.1464 28.0012C65.9797 28.4879 67.7864 27.3945 68.1731 25.5611C68.3997 24.4944 68.0997 23.4144 67.4464 22.5944Z" fill="#020203"/>
<path d="M65.5746 25.6062C66.057 25.2309 66.1255 24.512 65.7275 24.0005C65.3296 23.489 64.6159 23.3786 64.1335 23.754C63.6511 24.1293 63.5826 24.8482 63.9806 25.3597C64.3785 25.8712 65.0922 25.9816 65.5746 25.6062Z" fill="white"/>
<path d="M54.3731 23.981L58.9598 25.201L58.6265 26.7677L54.0398 25.5477L54.3731 23.981Z" fill="#020203"/>
<path d="M58.5664 25.4474L58.3731 26.3608L54.4331 25.3074L54.6264 24.3941L58.5664 25.4474ZM59.3531 24.9608L54.1197 23.5674L53.6531 25.7875L58.8864 27.1808L59.3531 24.9608Z" fill="#020203"/>
<path d="M52.2065 20.5005L53.7799 20.9138L52.8665 25.234L51.2932 24.814L52.2065 20.5005Z" fill="#020203"/>
<path d="M53.3866 21.1606L52.6132 24.8207L51.6866 24.574L52.4599 20.9139L53.3866 21.1606ZM54.1666 20.6739L51.9466 20.0806L50.8999 25.0474L53.1199 25.6407L54.1666 20.6739Z" fill="#020203"/>
<path d="M59.6901 35.075L59.2495 37.0054L65.5864 38.4517L66.0269 36.5213L59.6901 35.075Z" fill="#020203"/>
<path d="M65.3468 38.0613L59.6601 36.7612L59.9534 35.4812L65.6401 36.7812L65.3468 38.0613ZM65.8468 38.8546L66.4334 36.2745L59.4468 34.6812L58.8601 37.2612L65.8468 38.8546Z" fill="#020203"/>
<path d="M66.3736 36.8745L70.1336 43.8081L69.0669 45.0614L65.3069 38.1279L66.3736 36.8745Z" fill="#020203"/>
<path d="M69.7335 43.7617L69.1268 44.475L65.7068 38.1682L66.3135 37.4548L69.7335 43.7617ZM70.5335 43.8483L66.4335 36.2881L64.9001 38.0881L69.0001 45.6484L70.5335 43.8483Z" fill="#020203"/>
<path d="M52.7196 33.4769L52.2791 35.4072L58.6159 36.8535L59.0565 34.9232L52.7196 33.4769Z" fill="#020203"/>
<path d="M58.3733 36.4545L52.6866 35.1545L52.98 33.8744L58.6666 35.1745L58.3733 36.4545ZM58.88 37.2545L59.4666 34.6744L52.48 33.0811L51.8933 35.6611L58.88 37.2545Z" fill="#020203"/>
<path d="M49.2601 26.874L53.0201 33.8076L51.9534 35.061L48.1868 28.1274L49.2601 26.874Z" fill="#020203"/>
<path d="M52.62 33.7678L52.0133 34.4812L48.5933 28.1743L49.2 27.461L52.62 33.7678ZM53.42 33.8478L49.32 26.2876L47.7866 28.0877L51.8866 35.6479L53.42 33.8478Z" fill="#020203"/>
<path d="M60.6266 45.5488L62.2 49.1423L60.7666 49.8556L59.2 46.2689L60.6266 45.5488Z" fill="#020203"/>
<path d="M61.7666 48.982L60.9333 49.402L59.6266 46.4219L60.4599 46.0019L61.7666 48.982ZM62.6333 49.2953L60.7933 45.0952L58.7666 46.1152L60.6066 50.3154L62.6333 49.2953Z" fill="#020203"/>
<path d="M58.0866 39.7485L61.4999 47.5421L60.0732 48.2621L56.6599 40.4686L58.0866 39.7485Z" fill="#020203"/>
<path d="M61.0668 47.3885L60.2335 47.8085L57.0868 40.6283L57.9201 40.2083L61.0668 47.3885ZM61.9335 47.7019L58.2535 39.2949L56.2268 40.315L59.9068 48.7219L61.9335 47.7019Z" fill="#020203"/>
<path d="M59.7467 51.5419C59.9667 50.5752 60.5867 49.7752 61.44 49.3485C62.16 48.9885 62.9733 48.9352 63.7133 49.2018C64.4667 49.4752 65.0733 50.0485 65.4067 50.8085C65.6867 51.4486 65.7533 52.1619 65.5933 52.8619C65.3733 53.8286 64.76 54.6287 63.9 55.0553C63.18 55.4154 62.3667 55.4687 61.6267 55.202C60.8733 54.9287 60.2667 54.3553 59.9333 53.5953C59.6533 52.9486 59.5867 52.2419 59.7467 51.5419Z" fill="#020203"/>
<path d="M65.2666 52.7886C65.0666 53.6553 64.5133 54.3754 63.7533 54.762C63.1133 55.082 62.3999 55.1287 61.7466 54.8954C61.0799 54.6554 60.5466 54.1487 60.2466 53.4687C59.9933 52.8886 59.9333 52.2553 60.0799 51.6219C60.2799 50.7552 60.8333 50.0352 61.5933 49.6485C62.2333 49.3285 62.9466 49.2819 63.5999 49.5152C64.2666 49.7552 64.7999 50.2619 65.0999 50.9419C65.3466 51.5219 65.4066 52.1553 65.2666 52.7886ZM65.9133 52.9353C66.0799 52.202 66.0266 51.4086 65.7066 50.6752C64.9466 48.9352 62.9666 48.2085 61.2866 49.0485C60.3133 49.5352 59.6533 50.4486 59.4199 51.4686C59.2533 52.202 59.3066 52.9953 59.6266 53.7287C60.3866 55.4687 62.3666 56.1954 64.0466 55.3554C65.0199 54.862 65.6799 53.9554 65.9133 52.9353Z" fill="#020203"/>
<path d="M63.7462 52.4611C63.8979 51.8311 63.5393 51.2043 62.9451 51.0612C62.3509 50.918 61.7461 51.3127 61.5944 51.9427C61.4426 52.5728 61.8013 53.1995 62.3955 53.3427C62.9897 53.4858 63.5944 53.0911 63.7462 52.4611Z" fill="white"/>
<path d="M56.6799 43.5752L58.5866 47.9287L57.1532 48.642L55.2466 44.2952L56.6799 43.5752Z" fill="#020203"/>
<path d="M58.1532 47.7684L57.3199 48.1884L55.6866 44.455L56.5199 44.035L58.1532 47.7684ZM59.0132 48.0817L56.8399 43.1216L54.8132 44.1416L56.9866 49.1018L59.0132 48.0817Z" fill="#020203"/>
<path d="M58.0534 39.7085L58.7067 41.2019L54.76 43.1819L54.1067 41.6886L58.0534 39.7085Z" fill="#020203"/>
<path d="M58.2733 41.0416L54.9267 42.7217L54.54 41.8416L57.8867 40.1616L58.2733 41.0416ZM59.1333 41.355L58.2133 39.2549L53.6733 41.535L54.5933 43.635L59.1333 41.355Z" fill="#020203"/>
<path d="M51.3296 54.6653L49.5457 55.5244L52.366 61.3811L54.15 60.522L51.3296 54.6653Z" fill="#020203"/>
<path d="M52.5135 60.9356L49.9802 55.6754L51.1602 55.1087L53.6935 60.3689L52.5135 60.9356ZM52.2068 61.8222L54.5935 60.6755L51.4802 54.2153L49.0935 55.362L52.2068 61.8222Z" fill="#020203"/>
<path d="M54.0868 60.9952L51.0068 68.2621L49.3601 68.2088L52.4334 60.9419L54.0868 60.9952Z" fill="#020203"/>
<path d="M50.7934 67.9225L49.8601 67.8958L52.6601 61.2889L53.5934 61.3156L50.7934 67.9225ZM51.2268 68.6025L54.5801 60.6822L52.2134 60.6089L48.8601 68.5291L51.2268 68.6025Z" fill="#020203"/>
<path d="M48.2366 48.2175L46.4526 49.0767L49.273 54.9333L51.057 54.0742L48.2366 48.2175Z" fill="#020203"/>
<path d="M49.42 54.4821L46.8867 49.2219L48.0667 48.6552L50.6 53.9154L49.42 54.4821ZM49.1133 55.3754L51.5 54.2287L48.3867 47.7686L46 48.9152L49.1133 55.3754Z" fill="#020203"/>
<path d="M51.2333 41.3815L48.1533 48.6484L46.5066 48.595L49.5799 41.3281L51.2333 41.3815Z" fill="#020203"/>
<path d="M47.9333 48.3015L46.9999 48.2749L49.7999 41.668L50.7333 41.6947L47.9333 48.3015ZM48.3733 48.9882L51.7266 41.068L49.3599 40.9946L46.0066 48.9149L48.3733 48.9882Z" fill="#020203"/>
<path d="M43.7202 61.9155L41.8869 65.3823L40.4402 64.7156L42.2669 61.2422L43.7202 61.9155Z" fill="#020203"/>
<path d="M41.7402 64.949L40.8936 64.5557L42.4069 61.6756L43.2536 62.0689L41.7402 64.949ZM42.0402 65.8157L44.1802 61.7556L42.1202 60.8022L39.9802 64.8624L42.0402 65.8157Z" fill="#020203"/>
<path d="M46.6668 56.3088L42.7002 63.8423L41.2468 63.169L45.2135 55.6421L46.6668 56.3088Z" fill="#020203"/>
<path d="M42.5535 63.4024L41.7068 63.0091L45.3601 56.0688L46.2068 56.4622L42.5535 63.4024ZM42.8535 64.2758L47.1335 56.1555L45.0735 55.2021L40.7935 63.3224L42.8535 64.2758Z" fill="#020203"/>
<path d="M38.4867 64.9622C39.38 64.5289 40.3867 64.5155 41.2534 64.9156C41.9867 65.2556 42.5334 65.8556 42.7867 66.6023C43.0467 67.3623 42.9734 68.189 42.5867 68.929C42.26 69.5491 41.7467 70.0424 41.1 70.3557C40.2067 70.7824 39.2 70.8024 38.3334 70.4024C37.6 70.0624 37.0534 69.4624 36.8 68.7157C36.54 67.9557 36.6134 67.129 37 66.389C37.3267 65.7623 37.84 65.2756 38.4867 64.9622Z" fill="#020203"/>
<path d="M40.9534 70.0491C40.1534 70.4358 39.2467 70.4491 38.4667 70.0958C37.8134 69.7958 37.3334 69.2691 37.1134 68.6091C36.8867 67.9357 36.9467 67.2023 37.2934 66.5423C37.5867 65.9823 38.0467 65.5423 38.6334 65.2623C39.4334 64.8756 40.3401 64.8623 41.1201 65.2156C41.7734 65.5156 42.2534 66.0423 42.4734 66.7023C42.7001 67.3757 42.6401 68.1091 42.2934 68.7691C41.9934 69.3291 41.5334 69.7758 40.9534 70.0491ZM41.2401 70.6558C41.9201 70.3291 42.5067 69.7891 42.8801 69.0824C43.7667 67.4024 43.1001 65.4023 41.3934 64.6156C40.4067 64.1556 39.2801 64.2089 38.3401 64.6623C37.6601 64.989 37.0734 65.529 36.7001 66.2357C35.8134 67.9157 36.4801 69.9158 38.1867 70.7025C39.1734 71.1558 40.3001 71.1091 41.2401 70.6558Z" fill="#020203"/>
<path d="M40.2457 68.6596C40.8329 68.3855 41.0993 67.7143 40.8408 67.1605C40.5822 66.6067 39.8967 66.3799 39.3095 66.6541C38.7223 66.9282 38.4559 67.5994 38.7145 68.1532C38.973 68.707 39.6586 68.9337 40.2457 68.6596Z" fill="white"/>
<path d="M42.8 57.5954L40.5866 61.7955L39.1333 61.1288L41.3466 56.9287L42.8 57.5954Z" fill="#020203"/>
<path d="M40.44 61.3623L39.5933 60.9689L41.4933 57.3621L42.34 57.7555L40.44 61.3623ZM40.7333 62.2356L43.26 57.4421L41.2 56.4888L38.6733 61.2823L40.7333 62.2356Z" fill="#020203"/>
<path d="M46.68 56.2621L45.92 57.7021L41.9133 55.8487L42.6733 54.4087L46.68 56.2621Z" fill="#020203"/>
<path d="M45.7734 57.262L42.3734 55.6953L42.82 54.8486L46.22 56.4153L45.7734 57.262ZM46.0667 58.1354L47.1334 56.1087L42.52 53.9819L41.4534 56.0087L46.0667 58.1354Z" fill="#020203"/>
<path d="M29.014 59.4646L26.1936 65.3213L27.9776 66.1804L30.7979 60.3238L29.014 59.4646Z" fill="#020203"/>
<path d="M26.6335 65.162L29.1668 59.9018L30.3468 60.4685L27.8135 65.7287L26.6335 65.162ZM25.7468 65.4753L28.1335 66.622L31.2468 60.1618L28.8602 59.0151L25.7468 65.4753Z" fill="#020203"/>
<path d="M27.5602 66.4284L19.9669 68.5552L18.9802 67.2285L26.5736 65.1084L27.5602 66.4284Z" fill="#020203"/>
<path d="M20.0935 68.1686L19.5335 67.4219L26.4402 65.4885L27.0002 66.2352L20.0935 68.1686ZM19.8335 68.9353L28.1202 66.6219L26.7068 64.7285L18.4202 67.0419L19.8335 68.9353Z" fill="#020203"/>
<path d="M32.1263 53.0227L29.3059 58.8794L31.0899 59.7385L33.9102 53.8819L32.1263 53.0227Z" fill="#020203"/>
<path d="M29.7466 58.7216L32.2799 53.4614L33.4599 54.0281L30.9266 59.2883L29.7466 58.7216ZM28.8533 59.0349L31.2399 60.1816L34.3533 53.7214L31.9666 52.5747L28.8533 59.0349Z" fill="#020203"/>
<path d="M41.1134 51.968L33.5201 54.0947L32.5334 52.768L40.1268 50.6479L41.1134 51.968Z" fill="#020203"/>
<path d="M33.6534 53.7082L33.0934 52.9615L40.0001 51.0281L40.5601 51.7748L33.6534 53.7082ZM33.3867 54.4749L41.6734 52.1615L40.2601 50.2681L31.9734 52.5815L33.3867 54.4749Z" fill="#020203"/>
<path d="M20.3801 58.8952L16.5267 59.6285L16.1467 58.0752L20.0001 57.3418L20.3801 58.8952Z" fill="#020203"/>
<path d="M16.78 59.2418L16.56 58.3351L19.7533 57.7284L19.9733 58.6351L16.78 59.2418ZM16.28 60.0152L20.7867 59.1551L20.2467 56.9551L15.74 57.8151L16.28 60.0152Z" fill="#020203"/>
<path d="M26.6001 57.7086L18.2401 59.302L17.8601 57.7486L26.2201 56.1553L26.6001 57.7086Z" fill="#020203"/>
<path d="M18.4867 58.9153L18.2667 58.0086L25.9667 56.5419L26.1867 57.4486L18.4867 58.9153ZM17.9934 59.6887L27.0067 57.9686L26.4667 55.7686L17.4534 57.4886L17.9934 59.6887Z" fill="#020203"/>
<path d="M14.7334 56.7017C15.6267 57.1351 16.2667 57.9084 16.5001 58.8351C16.6934 59.6218 16.5667 60.4218 16.1401 61.0819C15.7067 61.7619 15.0134 62.2152 14.1934 62.3752C13.5067 62.5086 12.8001 62.4153 12.1534 62.1019C11.2601 61.6752 10.6201 60.8952 10.3867 59.9685C10.1934 59.1818 10.3201 58.3818 10.7467 57.7218C11.1801 57.0417 11.8734 56.5884 12.6934 56.4284C13.3801 56.3017 14.0867 56.3951 14.7334 56.7017Z" fill="#020203"/>
<path d="M12.2933 61.8087C11.4933 61.422 10.9133 60.722 10.7066 59.8953C10.5333 59.2019 10.6466 58.4952 11.0266 57.9086C11.4133 57.3085 12.0266 56.9019 12.7533 56.7619C13.3733 56.6418 14.0066 56.7285 14.5866 57.0085C15.3866 57.3952 15.9666 58.0952 16.1733 58.9219C16.3466 59.6153 16.2333 60.322 15.8533 60.9087C15.4666 61.5087 14.8533 61.9154 14.1266 62.0554C13.5066 62.1754 12.8733 62.0887 12.2933 61.8087ZM12.0066 62.4087C12.6866 62.7354 13.4733 62.862 14.2533 62.7087C16.12 62.3554 17.2733 60.5886 16.82 58.7619C16.56 57.7019 15.82 56.8552 14.88 56.4018C14.2 56.0752 13.4133 55.9485 12.6333 56.1018C10.7666 56.4552 9.61329 58.2219 10.0666 60.0486C10.32 61.1087 11.06 61.9554 12.0066 62.4087Z" fill="#020203"/>
<path d="M14.4952 59.9366C14.767 59.3891 14.5168 58.7117 13.9364 58.4235C13.3559 58.1354 12.6651 58.3455 12.3933 58.893C12.1215 59.4405 12.3717 60.1179 12.9521 60.4061C13.5325 60.6943 14.2234 60.4841 14.4952 59.9366Z" fill="white"/>
<path d="M23.1801 55.4884L18.5201 56.3751L18.1401 54.8217L22.8001 53.9351L23.1801 55.4884Z" fill="#020203"/>
<path d="M18.7667 55.9884L18.5467 55.0817L22.5534 54.315L22.7734 55.2217L18.7667 55.9884ZM18.2734 56.7618L23.5934 55.7484L23.0534 53.5483L17.7334 54.5617L18.2734 56.7618Z" fill="#020203"/>
<path d="M26.6467 57.682L25.0467 57.9887L23.9934 53.7019L25.5934 53.4019L26.6467 57.682Z" fill="#020203"/>
<path d="M25.2933 57.602L24.4 53.9685L25.34 53.7885L26.2333 57.4219L25.2933 57.602ZM24.8 58.3753L27.0533 57.9486L25.84 53.0151L23.5867 53.4418L24.8 58.3753Z" fill="#020203"/>
<path d="M13.1213 45.8657L6.78442 47.312L7.22497 49.2424L13.5618 47.7961L13.1213 45.8657Z" fill="#020203"/>
<path d="M7.18672 47.5683L12.8734 46.2683L13.1667 47.5483L7.48005 48.8484L7.18672 47.5683ZM6.38672 47.0616L6.97338 49.6417L13.9601 48.0483L13.3734 45.4683L6.38672 47.0616Z" fill="#020203"/>
<path d="M6.77346 49.0817L0.380127 44.4682L0.800127 42.8682L7.19346 47.4816L6.77346 49.0817Z" fill="#020203"/>
<path d="M0.76 44.3283L1 43.4216L6.81333 47.6218L6.57333 48.5285L0.76 44.3283ZM0 44.6017L6.97333 49.6352L7.57333 47.3484L0.6 42.3149L0 44.6017Z" fill="#020203"/>
<path d="M20.0934 44.2798L13.7566 45.7261L14.1971 47.6564L20.534 46.2101L20.0934 44.2798Z" fill="#020203"/>
<path d="M14.16 45.9816L19.8467 44.6815L20.14 45.9616L14.4534 47.2616L14.16 45.9816ZM13.3667 45.4816L13.9534 48.0616L20.94 46.4683L20.3534 43.8882L13.3667 45.4816Z" fill="#020203"/>
<path d="M26.5335 50.6618L20.1401 46.0483L20.5535 44.4482L26.9535 49.0684L26.5335 50.6618Z" fill="#020203"/>
<path d="M20.52 45.9079L20.76 45.0012L26.5733 49.2014L26.3333 50.1081L20.52 45.9079ZM19.76 46.1813L26.7333 51.2148L27.3333 48.928L20.36 43.8945L19.76 46.1813Z" fill="#020203"/>
<path d="M8.18671 38.7684L5.21338 36.2149L6.19338 34.9482L9.16671 37.5017L8.18671 38.7684Z" fill="#020203"/>
<path d="M5.67334 36.1678L6.24001 35.4278L8.70668 37.5479L8.14001 38.2879L5.67334 36.1678ZM4.76001 36.2612L8.24001 39.2479L9.62668 37.4545L6.14668 34.4678L4.76001 36.2612Z" fill="#020203"/>
<path d="M12.9934 42.8946L6.54004 37.3478L7.51337 36.0811L13.9734 41.6279L12.9934 42.8946Z" fill="#020203"/>
<path d="M6.99341 37.3011L7.56008 36.5611L13.5134 41.6679L12.9467 42.408L6.99341 37.3011ZM6.08008 37.3945L13.0467 43.368L14.4334 41.5746L7.46674 35.6011L6.08008 37.3945Z" fill="#020203"/>
<path d="M6.38 32.9877C6.6 33.9544 6.39333 34.9411 5.80666 35.7011C5.31333 36.3412 4.60666 36.7412 3.82 36.8212C3.02 36.9012 2.23333 36.6478 1.6 36.1078C1.06666 35.6478 0.699997 35.0411 0.539997 34.3411C0.319997 33.3744 0.526663 32.3877 1.11333 31.6277C1.60666 30.9877 2.31333 30.5876 3.1 30.5076C3.9 30.4276 4.68666 30.681 5.32 31.221C5.86 31.681 6.22 32.2877 6.38 32.9877Z" fill="#020203"/>
<path d="M0.873388 34.261C0.673388 33.3943 0.860055 32.5076 1.38005 31.8276C1.82005 31.2609 2.44005 30.9075 3.13339 30.8342C3.84005 30.7609 4.54005 30.9875 5.10672 31.4676C5.58672 31.8809 5.91339 32.4276 6.06006 33.0543C6.26006 33.921 6.07339 34.8077 5.55339 35.4877C5.11339 36.0544 4.49339 36.4077 3.80006 36.4811C3.09339 36.5544 2.39339 36.3277 1.82672 35.8477C1.34005 35.4343 1.01339 34.8877 0.873388 34.261ZM0.220055 34.4077C0.386722 35.141 0.780055 35.8344 1.38672 36.3544C2.82672 37.5944 4.92672 37.3877 6.07339 35.901C6.74005 35.0343 6.94006 33.9343 6.70672 32.9143C6.54006 32.1809 6.14672 31.4876 5.54006 30.9675C4.10005 29.7275 2.00005 29.9342 0.853388 31.4209C0.186722 32.2809 -0.0132783 33.3876 0.220055 34.4077Z" fill="#020203"/>
<path d="M3.71243 34.8033C4.30987 34.6745 4.68346 34.0565 4.54686 33.4231C4.41026 32.7896 3.8152 32.3805 3.21775 32.5094C2.62031 32.6382 2.24672 33.2562 2.38332 33.8896C2.51993 34.5231 3.11499 34.9322 3.71243 34.8033Z" fill="white"/>
<path d="M12.6 38.8348L9 35.7413L9.97333 34.4746L13.58 37.568L12.6 38.8348Z" fill="#020203"/>
<path d="M9.45337 35.6947L10.02 34.9547L13.1134 37.6081L12.5467 38.3481L9.45337 35.6947ZM8.54004 35.788L12.6467 39.3148L14.0334 37.5214L9.92671 33.9946L8.54004 35.788Z" fill="#020203"/>
<path d="M13.04 42.9148L11.8066 41.8548L14.5 38.3613L15.74 39.4214L13.04 42.9148Z" fill="#020203"/>
<path d="M12.2666 41.8077L14.5533 38.8409L15.2799 39.4676L12.9933 42.4343L12.2666 41.8077ZM11.3533 41.901L13.0933 43.3944L16.1933 39.3742L14.4533 37.8809L11.3533 41.901Z" fill="#020203"/>
<path d="M8.76407 20.9183L7.52954 22.4663L12.6112 26.5192L13.8458 24.9712L8.76407 20.9183Z" fill="#020203"/>
<path d="M8.82006 21.3875L13.3801 25.0276L12.5601 26.0543L8.00006 22.4142L8.82006 21.3875ZM8.71339 20.4541L7.06006 22.5208L12.6667 26.9943L14.3201 24.9276L8.71339 20.4541Z" fill="#020203"/>
<path d="M7.38 22.0142L7 14.134L8.51333 13.4673L8.88667 21.3409L7.38 22.0142Z" fill="#020203"/>
<path d="M7.34658 14.3472L8.19991 13.9672L8.54658 21.1341L7.69324 21.5074L7.34658 14.3472ZM6.65991 13.9205L7.07324 22.5141L9.23325 21.5541L8.81991 12.9604L6.65991 13.9205Z" fill="#020203"/>
<path d="M14.3461 25.39L13.1116 26.938L18.1933 30.9909L19.4278 29.4429L14.3461 25.39Z" fill="#020203"/>
<path d="M14.4067 25.8543L18.9667 29.4944L18.1467 30.5211L13.5867 26.881L14.4067 25.8543ZM14.3001 24.9209L12.6467 26.9876L18.2534 31.4611L19.9067 29.3944L14.3001 24.9209Z" fill="#020203"/>
<path d="M18.46 38.4478L18.0867 30.5676L19.5933 29.9009L19.9733 37.7745L18.46 38.4478Z" fill="#020203"/>
<path d="M18.4267 30.7808L19.28 30.4007L19.6267 37.5676L18.7733 37.9477L18.4267 30.7808ZM17.74 30.3541L18.1533 38.9477L20.3133 37.9877L19.9 29.394L17.74 30.3541Z" fill="#020203"/>
<path d="M16.3267 16.6875L16.4667 12.7674L18.0667 12.7407L17.9267 16.6608L16.3267 16.6875Z" fill="#020203"/>
<path d="M16.7866 13.1004L17.72 13.0871L17.6 16.3405L16.6666 16.3539L16.7866 13.1004ZM16.1466 12.4404L15.98 17.0272L18.2466 16.9872L18.4133 12.4004L16.1466 12.4404Z" fill="#020203"/>
<path d="M16.0935 23.0142L16.4002 14.514L18.0002 14.4873L17.6935 22.9876L16.0935 23.0142Z" fill="#020203"/>
<path d="M16.7268 14.8406L17.6602 14.8273L17.3802 22.6609L16.4468 22.6742L16.7268 14.8406ZM16.0802 14.1806L15.7468 23.3543L18.0135 23.3143L18.3468 14.1406L16.0802 14.1806Z" fill="#020203"/>
<path d="M19.72 11.6733C19.1 12.4467 18.2 12.9 17.2467 12.92C16.44 12.9333 15.6867 12.6267 15.1334 12.0666C14.5734 11.4933 14.2734 10.7133 14.3067 9.8799C14.3334 9.17988 14.58 8.51319 15.0267 7.95318C15.6467 7.17982 16.5467 6.72647 17.5 6.70647C18.3067 6.69314 19.06 6.99981 19.6134 7.55983C20.1734 8.13318 20.4734 8.91321 20.44 9.74657C20.4134 10.4399 20.1667 11.1066 19.72 11.6733Z" fill="#020203"/>
<path d="M15.2867 8.15364C15.84 7.45362 16.6534 7.04694 17.5067 7.0336C18.22 7.02027 18.8867 7.28695 19.3734 7.78696C19.8734 8.29365 20.1334 8.987 20.1067 9.72703C20.0867 10.3604 19.86 10.9537 19.46 11.4604C18.9067 12.1604 18.0934 12.5671 17.24 12.5805C16.5267 12.5938 15.86 12.3271 15.3734 11.8271C14.8734 11.3204 14.6134 10.6271 14.64 9.88704C14.66 9.26035 14.8867 8.66033 15.2867 8.15364ZM14.7667 7.7403C14.2934 8.33365 14 9.067 13.9734 9.86703C13.9067 11.7671 15.3734 13.2805 17.2467 13.2471C18.34 13.2271 19.3267 12.6938 19.98 11.8804C20.4534 11.2871 20.7467 10.5537 20.7734 9.75369C20.84 7.85363 19.3734 6.34025 17.5 6.37359C16.4067 6.38692 15.4134 6.92027 14.7667 7.7403Z" fill="#020203"/>
<path d="M18.2285 10.5028C18.6386 10.0011 18.5873 9.28076 18.1141 8.89398C17.6408 8.50721 16.9248 8.60043 16.5147 9.1022C16.1046 9.60397 16.1559 10.3243 16.6291 10.7111C17.1024 11.0978 17.8184 11.0046 18.2285 10.5028Z" fill="white"/>
<path d="M19.0266 20.174L19.1933 15.4339L20.7933 15.4072L20.6266 20.1474L19.0266 20.174Z" fill="#020203"/>
<path d="M19.5199 15.7607L20.4533 15.7474L20.3066 19.8209L19.3733 19.8342L19.5199 15.7607ZM18.8733 15.1074L18.6799 20.5209L20.9466 20.4809L21.1399 15.0674L18.8733 15.1074Z" fill="#020203"/>
<path d="M16.1135 23.0672L16.1669 21.4405L20.5802 21.3672L20.5202 22.9939L16.1135 23.0672Z" fill="#020203"/>
<path d="M16.4935 21.7671L20.2335 21.7071L20.2002 22.6671L16.4602 22.7271L16.4935 21.7671ZM15.8468 21.1137L15.7668 23.4071L20.8468 23.3271L20.9268 21.0337L15.8468 21.1137Z" fill="#020203"/>
<path d="M30.6399 6.01367H28.6599V12.5139H30.6399V6.01367Z" fill="#020203"/>
<path d="M30.3067 6.34686V12.1804H28.9933V6.34686H30.3067ZM30.9733 5.68018H28.3267V12.8471H30.9733V5.68018Z" fill="#020203"/>
<path d="M28.9199 5.60673L34.8399 0.399902L36.3066 1.15993L30.3866 6.37343L28.9199 5.60673Z" fill="#020203"/>
<path d="M34.8933 0.800024L35.7199 1.23337L30.3333 5.96686L29.5066 5.5335L34.8933 0.800024ZM34.7933 0L28.3333 5.68017L30.4333 6.77354L36.8933 1.09337L34.7933 0Z" fill="#020203"/>
<path d="M30.6267 13.167H28.6467V19.6672H30.6267V13.167Z" fill="#020203"/>
<path d="M30.2932 13.5007V19.3342H28.9799V13.5007H30.2932ZM30.9599 12.834H28.3132V20.0009H30.9599V12.834Z" fill="#020203"/>
<path d="M22.98 24.5206L28.9066 19.3071L30.3666 20.0738L24.4466 25.2807L22.98 24.5206Z" fill="#020203"/>
<path d="M28.9533 19.7139L29.78 20.1473L24.3933 24.8807L23.5666 24.4474L28.9533 19.7139ZM28.8533 18.9072L22.3933 24.5874L24.4933 25.6808L30.9533 20.0006L28.8533 18.9072Z" fill="#020203"/>
<path d="M38.6599 9.28067L41.8132 6.94727L42.8266 8.18063L39.6799 10.514L38.6599 9.28067Z" fill="#020203"/>
<path d="M41.7533 7.40702L42.3466 8.12704L39.7333 10.0604L39.1399 9.34041L41.7533 7.40702ZM41.8666 6.49365L38.1799 9.22041L39.6199 10.9671L43.3066 8.24038L41.8666 6.49365Z" fill="#020203"/>
<path d="M33.5667 13.047L40.4066 7.98682L41.4267 9.22019L34.5867 14.2804L33.5667 13.047Z" fill="#020203"/>
<path d="M40.3535 8.44021L40.9468 9.16024L34.6468 13.8271L34.0535 13.107L40.3535 8.44021ZM40.4668 7.52686L33.0935 12.987L34.5335 14.7338L41.9068 9.27357L40.4668 7.52686Z" fill="#020203"/>
<path d="M44.7 8.80717C43.7067 8.80717 42.7934 8.38716 42.1867 7.64714C41.6734 7.02045 41.44 6.24709 41.54 5.46706C41.64 4.66704 42.06 3.95368 42.7334 3.46033C43.3 3.04031 43.9733 2.82031 44.6933 2.82031C45.6867 2.82031 46.6 3.24033 47.2067 3.98035C47.72 4.60704 47.9534 5.38039 47.8534 6.16042C47.7534 6.96044 47.3334 7.6738 46.66 8.16715C46.0934 8.58717 45.4133 8.80717 44.7 8.80717Z" fill="#020203"/>
<path d="M44.68 3.14667C45.5733 3.14667 46.3933 3.52668 46.94 4.1867C47.3933 4.74005 47.6 5.42674 47.5133 6.12009C47.4267 6.82678 47.0533 7.46013 46.4533 7.90015C45.9467 8.27349 45.34 8.4735 44.6933 8.4735C43.8 8.4735 42.98 8.09349 42.4333 7.43347C41.98 6.88012 41.7733 6.19343 41.86 5.50008C41.9467 4.79339 42.32 4.16003 42.92 3.72002C43.4267 3.34668 44.04 3.14667 44.68 3.14667ZM44.68 2.47998C43.9267 2.47998 43.1667 2.70665 42.52 3.18667C40.9933 4.32004 40.72 6.40677 41.92 7.86015C42.6133 8.70017 43.6467 9.14019 44.6933 9.14019C45.4467 9.14019 46.2067 8.91351 46.8533 8.4335C48.38 7.30013 48.6533 5.2134 47.4533 3.76002C46.76 2.91999 45.7267 2.47998 44.68 2.47998Z" fill="#020203"/>
<path d="M45.8626 5.82977C45.87 5.21862 45.3507 4.71688 44.7027 4.7091C44.0548 4.70132 43.5235 5.19046 43.5162 5.80161C43.5089 6.41276 44.0282 6.91451 44.6762 6.92228C45.3241 6.93006 45.8553 6.44092 45.8626 5.82977Z" fill="white"/>
<path d="M37.6135 13.5675L41.4335 10.7407L42.4469 11.9808L38.6335 14.8008L37.6135 13.5675Z" fill="#020203"/>
<path d="M41.3735 11.2005L41.9669 11.9205L38.6869 14.3472L38.0935 13.6272L41.3735 11.2005ZM41.4869 10.2871L37.1335 13.5072L38.5735 15.2539L42.9269 12.0338L41.4869 10.2871Z" fill="#020203"/>
<path d="M33.54 13.094L34.8467 12.1206L37.6534 15.5274L36.3467 16.4941L33.54 13.094Z" fill="#020203"/>
<path d="M34.7935 12.5804L37.1735 15.4671L36.4001 16.0405L34.0201 13.1537L34.7935 12.5804ZM34.9001 11.667L33.0535 13.0337L36.2868 16.9538L38.1335 15.5871L34.9001 11.667Z" fill="#020203"/>
<path d="M87.0399 28.5344L90.3733 31.8746H99.3466L104.113 36.6414V43.4483L99.3466 48.2151H88.0799L83.5266 43.6616L85.5199 41.7082L89.4666 45.6083H97.96L101.3 42.2749V37.8081L97.96 34.468H88.9866L84.22 29.7011V23.2409L88.9866 18.4741H99.0399L103.073 22.5076L101.08 24.4143L97.6533 21.0809H90.3733L87.0399 24.4143V28.5344Z" fill="black"/>
<path d="M121.027 48.2145V44.6611H120.947C120.293 45.9345 119.407 46.9278 118.28 47.6279C117.153 48.3279 115.88 48.6812 114.46 48.6812C113.493 48.6812 112.627 48.5412 111.853 48.2679C111.08 47.9945 110.42 47.6079 109.88 47.1078C109.34 46.6078 108.92 46.0011 108.627 45.3011C108.333 44.6011 108.187 43.8211 108.187 42.9744C108.187 41.1676 108.747 39.7209 109.867 38.6476C110.987 37.5742 112.68 36.8742 114.947 36.5475L121.02 35.6675C121.02 31.8274 119.527 29.9073 116.547 29.9073C114.213 29.9073 112.053 30.7607 110.06 32.4674V29.734C110.473 29.4339 110.947 29.1673 111.473 28.9206C112 28.6806 112.56 28.4739 113.14 28.2939C113.72 28.1139 114.327 27.9806 114.947 27.8806C115.567 27.7806 116.167 27.7339 116.753 27.7339C118.98 27.7339 120.66 28.3606 121.8 29.6073C122.94 30.8607 123.507 32.7207 123.507 35.1941V48.2012H121.027V48.2145ZM115.867 38.5009C114.967 38.6342 114.2 38.7942 113.56 38.9876C112.92 39.1809 112.393 39.4476 111.98 39.7809C111.56 40.1143 111.26 40.521 111.06 41.0143C110.86 41.5077 110.767 42.1077 110.767 42.821C110.767 43.3544 110.86 43.8477 111.047 44.3078C111.233 44.7611 111.507 45.1544 111.867 45.4878C112.227 45.8211 112.66 46.0745 113.173 46.2612C113.687 46.4412 114.273 46.5345 114.92 46.5345C115.807 46.5345 116.62 46.3678 117.36 46.0278C118.1 45.6878 118.747 45.2211 119.287 44.6211C119.827 44.0211 120.253 43.3077 120.553 42.4744C120.86 41.641 121.013 40.7343 121.013 39.7609V37.7875L115.867 38.5009Z" fill="black"/>
<path d="M138.86 20.9671C138.3 20.6005 137.58 20.4204 136.693 20.4204C134.347 20.4204 133.18 21.9538 133.18 25.0073V28.2074H138.16V30.3941H133.18V48.208H130.68V30.3941H127.187V28.2074H130.68V24.8473C130.68 23.8472 130.807 22.9339 131.06 22.1205C131.313 21.3071 131.687 20.6071 132.18 20.0338C132.673 19.4538 133.293 19.0071 134.047 18.6937C134.793 18.3804 135.66 18.2271 136.633 18.2271C137.573 18.2271 138.313 18.3537 138.86 18.6004V20.9671Z" fill="black"/>
<path d="M142.507 38.6608C142.52 39.8875 142.68 40.9875 142.993 41.9609C143.307 42.9342 143.753 43.7676 144.34 44.4409C144.927 45.1143 145.64 45.6343 146.48 45.9943C147.32 46.3543 148.267 46.5343 149.32 46.5343C151.573 46.5343 153.7 45.7476 155.707 44.1743V46.6343C153.793 48.0011 151.473 48.6877 148.753 48.6877C147.413 48.6877 146.193 48.4544 145.1 47.9877C144.007 47.521 143.073 46.841 142.307 45.9477C141.54 45.0543 140.947 43.9609 140.527 42.6542C140.107 41.3542 139.9 39.8675 139.9 38.2007C139.9 36.7007 140.127 35.314 140.587 34.0406C141.04 32.7672 141.673 31.6605 142.48 30.7272C143.287 29.7938 144.247 29.0671 145.353 28.5404C146.46 28.0137 147.673 27.7471 148.987 27.7471C150.273 27.7471 151.413 27.9737 152.407 28.4204C153.4 28.8671 154.227 29.5138 154.9 30.3471C155.573 31.1805 156.08 32.1939 156.433 33.3939C156.787 34.594 156.96 35.934 156.96 37.4207V38.6741H142.507V38.6608ZM154.387 36.474C154.347 34.3939 153.853 32.7739 152.9 31.6272C151.947 30.4805 150.627 29.9071 148.933 29.9071C148.087 29.9071 147.3 30.0538 146.58 30.3538C145.86 30.6538 145.22 31.0872 144.673 31.6539C144.127 32.2205 143.673 32.9139 143.313 33.7273C142.953 34.5406 142.707 35.454 142.56 36.474H154.387Z" fill="black"/>
<path d="M164.1 28.5344L167.433 31.8746H176.407L181.173 36.6414V43.4483L176.407 48.2151H165.14L160.587 43.6616L162.58 41.7082L166.527 45.6083H175.02L178.353 42.2749V37.8081L175.02 34.468H166.047L161.28 29.7011V23.2409L166.047 18.4741H176.1L180.127 22.5076L178.133 24.4143L174.713 21.0809H167.433L164.1 24.4143V28.5344Z" fill="black"/>
<path d="M194.747 48.6811C193.26 48.6811 191.933 48.4344 190.753 47.941C189.573 47.4477 188.567 46.7477 187.733 45.841C186.9 44.9343 186.26 43.8542 185.82 42.5875C185.38 41.3208 185.153 39.9275 185.153 38.3874C185.153 36.7207 185.387 35.2273 185.853 33.9139C186.32 32.6006 186.987 31.4805 187.853 30.5672C188.72 29.6538 189.767 28.9471 190.987 28.4671C192.213 27.9871 193.58 27.7471 195.087 27.7471C196.533 27.7471 197.833 27.9871 198.993 28.4604C200.153 28.9338 201.133 29.6205 201.94 30.5205C202.747 31.4205 203.367 32.5139 203.793 33.8006C204.22 35.0873 204.44 36.554 204.44 38.1941C204.44 39.7541 204.213 41.1808 203.767 42.4609C203.32 43.7409 202.673 44.8476 201.84 45.7743C201.007 46.701 199.993 47.4144 198.793 47.921C197.593 48.4277 196.26 48.6811 194.747 48.6811ZM194.947 29.9071C193.853 29.9071 192.867 30.0938 191.98 30.4738C191.093 30.8538 190.333 31.4005 189.707 32.1272C189.08 32.8539 188.593 33.7339 188.253 34.7806C187.913 35.8273 187.747 37.014 187.747 38.3474C187.747 39.6008 187.913 40.7208 188.253 41.7275C188.593 42.7342 189.073 43.5876 189.687 44.3076C190.3 45.0276 191.06 45.5743 191.94 45.961C192.82 46.3477 193.813 46.5343 194.907 46.5343C196.027 46.5343 197.013 46.3477 197.873 45.981C198.733 45.6143 199.46 45.0676 200.06 44.3609C200.66 43.6542 201.113 42.7809 201.42 41.7542C201.727 40.7275 201.88 39.5541 201.88 38.2407C201.88 35.5473 201.28 33.4873 200.08 32.0605C198.88 30.6338 197.173 29.9071 194.947 29.9071Z" fill="black"/>
<path d="M218.813 20.9671C218.253 20.6005 217.533 20.4204 216.647 20.4204C214.3 20.4204 213.133 21.9538 213.133 25.0073V28.2074H218.113V30.3941H213.133V48.208H210.633V30.3941H207.14V28.2074H210.633V24.8473C210.633 23.8472 210.76 22.9339 211.013 22.1205C211.267 21.3071 211.64 20.6071 212.133 20.0338C212.627 19.4538 213.247 19.0071 214 18.6937C214.753 18.3804 215.613 18.2271 216.587 18.2271C217.527 18.2271 218.267 18.3537 218.813 18.6004V20.9671Z" fill="black"/>
<path d="M229.867 47.9747C229.007 48.4013 228.067 48.6214 227.053 48.6214C223.827 48.6214 222.207 46.7613 222.207 43.0345V30.3941H218.693V28.2074H222.207V23.1672L224.707 22.3472V28.2074H229.86V30.3941H224.707V42.6412C224.707 43.9945 224.927 44.9746 225.373 45.5679C225.82 46.1613 226.567 46.4679 227.62 46.4679C228.4 46.4679 229.147 46.2346 229.867 45.7679V47.9747Z" fill="black"/>
<path d="M252.053 48.2148H249.553L245.313 33.5277C245.18 33.0743 245.08 32.481 245 31.7476H244.92C244.893 31.941 244.853 32.181 244.793 32.4677C244.733 32.7543 244.64 33.0943 244.513 33.481L239.847 48.2082H237.407L231.353 28.2075H234.027L238.42 43.7147C238.553 44.168 238.64 44.7481 238.693 45.4547H238.847C238.873 45.2214 238.913 44.9547 238.973 44.6547C239.033 44.3547 239.113 44.0347 239.22 43.6947L244.067 28.2075H246.14L250.473 43.7347C250.593 44.1747 250.687 44.7547 250.767 45.4747H250.92C250.907 45.2547 250.933 44.9947 251 44.7014C251.067 44.408 251.147 44.088 251.253 43.7347L255.647 28.2075H258.167L252.053 48.2148Z" fill="black"/>
<path d="M273.5 48.2145V44.6611H273.42C272.767 45.9345 271.88 46.9278 270.753 47.6279C269.627 48.3279 268.353 48.6812 266.933 48.6812C265.967 48.6812 265.1 48.5412 264.327 48.2679C263.553 47.9945 262.893 47.6079 262.353 47.1078C261.813 46.6078 261.393 46.0011 261.1 45.3011C260.807 44.6011 260.66 43.8211 260.66 42.9744C260.66 41.1676 261.22 39.7209 262.34 38.6476C263.46 37.5742 265.153 36.8742 267.42 36.5475L273.493 35.6675C273.493 31.8274 272 29.9073 269.02 29.9073C266.687 29.9073 264.527 30.7607 262.533 32.4674V29.734C262.947 29.4339 263.42 29.1673 263.947 28.9206C264.473 28.6806 265.033 28.4739 265.613 28.2939C266.193 28.1139 266.8 27.9806 267.42 27.8806C268.04 27.7806 268.64 27.7339 269.227 27.7339C271.453 27.7339 273.133 28.3606 274.273 29.6073C275.413 30.854 275.98 32.7207 275.98 35.1941V48.2012H273.5V48.2145ZM268.34 38.5009C267.44 38.6342 266.673 38.7942 266.033 38.9876C265.393 39.1809 264.867 39.4476 264.453 39.7809C264.04 40.1143 263.733 40.521 263.533 41.0143C263.333 41.5077 263.24 42.1077 263.24 42.821C263.24 43.3544 263.333 43.8477 263.52 44.3078C263.707 44.7678 263.98 45.1544 264.34 45.4878C264.7 45.8211 265.133 46.0745 265.647 46.2612C266.16 46.4478 266.747 46.5345 267.393 46.5345C268.28 46.5345 269.093 46.3678 269.833 46.0278C270.573 45.6878 271.22 45.2211 271.76 44.6211C272.3 44.0211 272.727 43.3077 273.027 42.4744C273.327 41.641 273.487 40.7343 273.487 39.7609V37.7875L268.34 38.5009Z" fill="black"/>
<path d="M291.933 30.7676C291.347 30.3409 290.593 30.1209 289.667 30.1209C289 30.1209 288.413 30.2476 287.907 30.5009C287.4 30.7543 286.953 31.0943 286.567 31.5276C286.18 31.961 285.86 32.4543 285.593 33.021C285.327 33.5877 285.113 34.1744 284.947 34.7877C284.787 35.4011 284.667 36.0211 284.593 36.6411C284.52 37.2611 284.487 37.8611 284.487 38.4212V48.2081H282.007V28.2075H284.487V32.4876H284.567C284.8 31.7609 285.1 31.1009 285.453 30.5276C285.813 29.9476 286.227 29.4609 286.693 29.0609C287.16 28.6608 287.673 28.3608 288.227 28.1542C288.78 27.9475 289.36 27.8408 289.973 27.8408C290.38 27.8408 290.74 27.8675 291.06 27.9208C291.38 27.9742 291.667 28.0542 291.927 28.1542V30.7676H291.933Z" fill="black"/>
<path d="M296.76 38.6608C296.773 39.8875 296.933 40.9875 297.247 41.9609C297.56 42.9342 298.007 43.7676 298.593 44.4409C299.18 45.1143 299.893 45.6343 300.733 45.9943C301.573 46.3543 302.52 46.5343 303.573 46.5343C305.827 46.5343 307.953 45.7476 309.96 44.1743V46.6343C308.047 48.0011 305.727 48.6877 303.007 48.6877C301.667 48.6877 300.447 48.4544 299.353 47.9877C298.26 47.521 297.327 46.841 296.56 45.9477C295.793 45.0543 295.2 43.9609 294.78 42.6542C294.36 41.3475 294.153 39.8675 294.153 38.2007C294.153 36.7007 294.38 35.314 294.84 34.0406C295.293 32.7672 295.927 31.6605 296.733 30.7272C297.54 29.7938 298.5 29.0671 299.607 28.5404C300.713 28.0137 301.927 27.7471 303.24 27.7471C304.527 27.7471 305.667 27.9737 306.66 28.4204C307.653 28.8671 308.48 29.5138 309.153 30.3471C309.827 31.1805 310.333 32.1939 310.687 33.3939C311.04 34.594 311.213 35.934 311.213 37.4207V38.6741H296.76V38.6608ZM308.633 36.474C308.593 34.3939 308.1 32.7739 307.147 31.6272C306.193 30.4805 304.873 29.9071 303.18 29.9071C302.333 29.9071 301.547 30.0538 300.827 30.3538C300.107 30.6538 299.467 31.0872 298.92 31.6539C298.373 32.2205 297.92 32.9139 297.56 33.7273C297.2 34.5406 296.953 35.454 296.807 36.474H308.633Z" fill="black"/>
</svg>
